<svg width="97" height="88" viewBox="0 0 97 88" fill="none" xmlns="http://www.w3.org/2000/svg">
<path fill-rule="evenodd" clip-rule="evenodd" d="M83.4667 1.13246C85.3841 1.37697 86.7403 3.12959 86.4958 5.04706L81.9523 40.6786C81.7078 42.5961 79.9552 43.9523 78.0377 43.7078C76.1202 43.4633 74.764 41.7106 75.0085 39.7932L79.552 4.16163C79.7966 2.24416 81.5492 0.887955 83.4667 1.13246Z" fill="white"/>
<path fill-rule="evenodd" clip-rule="evenodd" d="M27.5958 14.7666C29.1288 13.5891 31.326 13.8773 32.5035 15.4103L54.384 43.8971C55.5615 45.43 55.2733 47.6273 53.7403 48.8048C52.2073 49.9822 50.01 49.694 48.8326 48.1611L26.9521 19.6743C25.7746 18.1413 26.0628 15.9441 27.5958 14.7666Z" fill="white"/>
<path fill-rule="evenodd" clip-rule="evenodd" d="M1.62515 60.9308C2.28888 59.1153 4.29868 58.1816 6.11415 58.8454L39.8503 71.1792C41.6657 71.843 42.5994 73.8528 41.9357 75.6682C41.2719 77.4837 39.2621 78.4174 37.4467 77.7536L3.71055 65.4198C1.89508 64.756 0.961415 62.7462 1.62515 60.9308Z" fill="white"/>
</svg>
