<svg width="97" height="88" viewBox="0 0 97 88" fill="none" xmlns="http://www.w3.org/2000/svg">
<path fill-rule="evenodd" clip-rule="evenodd" d="M83.4667 1.13954C85.3841 1.38405 86.7403 3.13667 86.4958 5.05414L81.9523 40.6857C81.7078 42.6031 79.9552 43.9594 78.0377 43.7149C76.1202 43.4703 74.764 41.7177 75.0085 39.8002L79.552 4.16871C79.7966 2.25124 81.5492 0.895035 83.4667 1.13954Z" fill="#554444"/>
<path fill-rule="evenodd" clip-rule="evenodd" d="M27.5958 14.7737C29.1288 13.5962 31.326 13.8844 32.5035 15.4174L54.384 43.9041C55.5615 45.4371 55.2733 47.6344 53.7403 48.8119C52.2073 49.9893 50.01 49.7011 48.8326 48.1681L26.9521 19.6814C25.7746 18.1484 26.0628 15.9512 27.5958 14.7737Z" fill="#554444"/>
<path fill-rule="evenodd" clip-rule="evenodd" d="M1.62515 60.9378C2.28888 59.1224 4.29868 58.1887 6.11415 58.8524L39.8503 71.1863C41.6657 71.8501 42.5994 73.8598 41.9357 75.6753C41.2719 77.4908 39.2621 78.4245 37.4467 77.7607L3.71055 65.4268C1.89508 64.7631 0.961415 62.7533 1.62515 60.9378Z" fill="#554444"/>
</svg>
