<svg fill="none" height="295" viewBox="0 0 196 295" width="196" xmlns="http://www.w3.org/2000/svg" xmlns:xlink="http://www.w3.org/1999/xlink"><clipPath id="a"><path d="m0 0h195.04v294.92h-195.04z"/></clipPath><g clip-path="url(#a)"><path d="m193.29 60.16c-.07-4.19-3.49-7.56-7.68-7.56h-38.81l-.33 7.35h2.65c1.07 0 1.95.87 1.95 1.95v9.88c0 1.07-.87 1.95-1.95 1.95h-3.28l-4.94 108.87 37.92 1.12c8.98.27 16.36-7.02 16.22-16zm-24.66 11.84c0 1.07-.87 1.95-1.95 1.95h-3.89c-1.07 0-1.95-.87-1.95-1.95v-9.88c0-1.07.87-1.95 1.95-1.95h3.89c1.07 0 1.95.87 1.95 1.95zm17.38.15c0 .87-.7 1.57-1.57 1.57h-4.86c-.87 0-1.58-.71-1.57-1.58.02-2.5.05-7.32.03-9.81-.01-.87.7-1.58 1.57-1.58h4.83c.87 0 1.57.7 1.57 1.57z" fill="#3c1c09"/><path d="m148.22 55.36v-11.25h-145.90994v76.1c42.58004-49.49 124.67994-62.31 145.90994-64.85z" fill="#8a1e74"/><path d="m2.31006 212.16v69.06h145.90994v-121.53c-87.9299 10.31-127.8399 33.12-145.90994 52.47z" fill="#00a634"/><path d="m2.31006 185.09v27.07c18.07004-19.35 57.98004-42.16 145.90994-52.47v-27.07c-87.9299 10.31-127.8399 33.12-145.90994 52.47z" fill="#f0e9e8"/><path d="m2.31006 120.21v27.07 37.81c18.07004-19.35 57.98004-42.16 145.90994-52.47v-50.19-27.07c-21.23 2.54-103.3299 15.36-145.90994 64.85z" fill="#1a1713"/><path d="m.5 286.97c1.44 1.21 3.91 3.91 23.8 6.04s80.27 3.2 101.94-.71 22.38-5.68 24.15-7.81v-16.34h-2.27s6.6 10.39-74.27 10.43c-72.52.04-71.55-7.76-71.55-9.24-.94 0-1.75 0-1.75 0s-.05 16.23-.05 17.63z" fill="#0e0f0c"/><path d="m110.94 278.87c-4.63.19-16.1699 1.09-33.1299.91" opacity=".5" stroke="#fff" stroke-linecap="round" stroke-linejoin="round" stroke-miterlimit="10"/><path d="m1.65002 270.77s.88001 5.86 25.44998 7.02" opacity=".5" stroke="#fff" stroke-linecap="round" stroke-linejoin="round" stroke-miterlimit="10"/><path d="m2.71997 46.09v221.49" opacity=".4" stroke="#fff" stroke-linecap="round" stroke-linejoin="round" stroke-miterlimit="10"/><path d="m147.72 46.09v214.37" opacity=".4" stroke="#fff" stroke-linecap="round" stroke-linejoin="round" stroke-miterlimit="10"/><path d="m150.82 46.43h-150.81999603v-13.85c0-1.53-.01999987-2.6 2.77999603-2.78 42.4-7.97 145.26 0 145.26 0 1.53 0 2.78 1.24 2.78 2.78z" fill="#0e0e0c"/><path d="m40.78 30.5v-28.19002c0-.64.48-1.17 1.11-1.23 5.39-.500001 29.93-2.4 63.57.43.64.05 1.14.59 1.14 1.23v27.34002c0 .01-65.82-.64-65.82.42z" fill="#100f0d"/><path d="m48.9399 1.51s18.69-1.370002 49.28.46" opacity=".5" stroke="#969696" stroke-linecap="round" stroke-linejoin="round" stroke-miterlimit="10"/><path d="m26.9401 28.14c4.63-.19 16.17-1.09 33.13-.91" opacity=".5" stroke="#969696" stroke-linecap="round" stroke-linejoin="round" stroke-miterlimit="10"/><path d="m124.13 29.12c-4.28-.24-11.06-.92-21.59-.83" opacity=".5" stroke="#969696" stroke-linecap="round" stroke-linejoin="round" stroke-miterlimit="10"/><path clip-rule="evenodd" d="m87.9285 171.144c.0617.943.0906 1.925.0906 2.94v9.132l-.0002.018c-.0101.763-.0371 1.506-.0827 2.229.0966-1.161.1471-2.416.1471-3.769v-7.205c-.0118-1.196-.0645-2.31-.1548-3.345zm-21.8042 14.717c-.0798-1.052-.1172-2.152-.1172-3.295v-8.915l.0001-.013c.0071-.787.0328-1.553.0791-2.297-.0942 1.133-.1434 2.356-.1434 3.676v7.41c.0164 1.227.0781 2.371.1814 3.434zm-1.8336-26.785c2.8656-4.027 7.3032-5.848 12.7073-5.848 5.3382 0 9.7449 1.751 12.6196 5.659 2.7336 3.697 3.9033 9.045 3.9655 15.562l.0002.013v7.232c0 6.734-1.1326 12.256-3.8383 16.107-2.8577 4.068-7.2841 5.922-12.6868 5.922-5.3307 0-9.7197-1.804-12.6004-5.765l-.005-.006c-1.6389-2.269-2.7272-5.089-3.3522-8.373v3.376h-6.0755v10.166h-11.0942v-10.166h-19.9408v-6.839l20.8628-32.286h10.1722v29.084h5.4254c-.003-.144-.0055-.288-.0074-.433l-.0002-.018v-7.446c0-6.659 1.1339-12.127 3.8478-15.941zm58.2263 12.068c.061.943.09 1.925.09 2.94v9.132.018c-.01.763-.037 1.506-.083 2.229.097-1.161.147-2.416.147-3.769v-7.205c-.011-1.196-.064-2.309-.154-3.345zm-21.805 14.718c-.079-1.053-.117-2.153-.117-3.296v-8.915-.013c.007-.787.033-1.553.079-2.297-.094 1.133-.143 2.356-.143 3.676v7.41c.016 1.227.078 2.371.181 3.435zm-1.8332-26.786c2.8652-4.027 7.3032-5.848 12.7072-5.848 5.338 0 9.745 1.751 12.62 5.659 2.733 3.697 3.903 9.045 3.965 15.562v.013 7.232c0 6.734-1.132 12.256-3.838 16.107-2.858 4.068-7.284 5.922-12.687 5.922-5.33 0-9.719-1.804-12.6002-5.765l-.005-.006c-2.7232-3.769-3.9261-9.064-4.0096-15.471l-.0002-.018v-7.446c0-6.659 1.1338-12.127 3.8478-15.941zm-51.0316.254-2.4676 3.818 4.0513 1.041v33.432h.0942v-38.291zm-3.9163 14.432-5.852 9.152h5.852zm33.0671-10.462c-2.04 0-3.1457.694-3.8755 1.896-.9154 1.507-1.5757 4.199-1.6154 8.48v8.89c0 4.561.6742 7.446 1.644 9.066.8489 1.371 2.0146 2.049 3.9071 2.049 1.9075 0 3.0054-.662 3.7711-1.892l.0049-.007.005-.008c.9285-1.469 1.6201-4.185 1.6799-8.595v-9.095c0-4.577-.6653-7.366-1.5756-8.842l-.006-.01c-.7512-1.229-1.8822-1.932-3.9395-1.932zm34.588 0c-2.04 0-3.146.694-3.875 1.896-.916 1.507-1.576 4.199-1.616 8.479v8.891c0 4.561.674 7.446 1.644 9.066.849 1.371 2.015 2.049 3.907 2.049 1.908 0 3.006-.662 3.771-1.892l.005-.007.005-.008c.929-1.469 1.62-4.185 1.68-8.595v-9.095c0-4.577-.665-7.366-1.575-8.842l-.006-.01c-.752-1.229-1.883-1.932-3.94-1.932z" fill="#f0e9e8" fill-rule="evenodd"/><path d="m52.2751 185.664h6.0755v4.541h-6.0755v10.166h-5.5942v-10.166h-19.9408v-3.278l19.6099-30.347h5.9251zm-19.2189 0h13.6247v-21.475l-.6617 1.203z" fill="#85236f"/><path d="m90.8333 181.694c0 6.516-1.1129 11.359-3.3385 14.527-2.2257 3.168-5.7046 4.752-10.4366 4.752-4.6719 0-8.1307-1.544-10.3764-4.632-2.2457-3.108-3.4087-7.74-3.4889-13.895v-7.429c0-6.437 1.1128-11.219 3.3385-14.347s5.7145-4.692 10.4666-4.692c4.712 0 8.1809 1.514 10.4065 4.542 2.2257 3.007 3.3686 7.659 3.4288 13.955zm-5.5642-7.61c0-4.712-.6617-8.14-1.9851-10.286-1.3233-2.165-3.4187-3.248-6.286-3.248-2.8472 0-4.9225 1.073-6.2258 3.218s-1.975 5.444-2.0151 9.895v8.903c0 4.732.6817 8.231 2.0452 10.497 1.3835 2.245 3.4688 3.368 6.2559 3.368 2.747 0 4.7822-1.063 6.1055-3.188 1.3435-2.125 2.0453-5.474 2.1054-10.046z" fill="#85236f"/><path d="m125.421 181.694c0 6.516-1.113 11.359-3.338 14.527-2.226 3.168-5.705 4.752-10.437 4.752-4.672 0-8.13-1.544-10.376-4.632-2.2459-3.108-3.4088-7.74-3.489-13.895v-7.429c0-6.437 1.1128-11.219 3.338-14.347 2.226-3.128 5.715-4.692 10.467-4.692 4.712 0 8.181 1.514 10.407 4.542 2.225 3.007 3.368 7.659 3.428 13.955zm-5.564-7.61c0-4.712-.662-8.14-1.985-10.286-1.323-2.165-3.419-3.248-6.286-3.248-2.847 0-4.922 1.073-6.226 3.218-1.303 2.145-1.975 5.444-2.015 9.895v8.903c0 4.732.682 8.231 2.045 10.497 1.384 2.245 3.469 3.368 6.256 3.368 2.747 0 4.782-1.063 6.106-3.188 1.343-2.125 2.045-5.474 2.105-10.046z" fill="#85236f"/><g fill="#fff"><path d="m96.4815 216.917v10.1c0 .662.3181.993.9923 1.031h3.3332v1.132c0 .127-.064.216-.204.216-.038 0-5.4063 0-5.4063 0-1.6537 0-1.8954-.928-1.8954-1.755v-10.037c0-.484.1653-.7.7251-.687z"/><path d="m90.2736 216.917v11.818c0 .521-.2163.661-.6615.661h-2.5442v-11.83c0-.382.1653-.649.7251-.649z"/><path d="m37.392 218.622c0-.942 0-1.718 1.5519-1.718h6.8822v1.196c0 .076-.0382.165-.1654.165h-4.1089c-.5598 0-.8269.268-.8269.827v3.168h4.834v1.272c0 .102-.0763.165-.1781.165h-4.6559v5.038c-.0254.483-.2671.661-.7887.661h-2.5442z"/><path d="m50.7745 216.917v9.515c0 .802.1273 1.387.687 1.718.7633.445 2.0735.445 2.8622.025.5216-.305.7506-.789.7506-1.73v-8.892c0-.407.1399-.623.6996-.623h2.4807v9.235c0 2.137-1.3485 3.028-2.5443 3.346-1.5901.42-4.0071.445-5.5082-.026-1.7937-.521-2.6206-1.59-2.6206-3.333v-8.612c0-.407.14-.623.6234-.623z"/><path d="m50.7745 216.917v9.515c0 .802.1273 1.387.687 1.718.7633.445 2.0735.445 2.8622.025.5216-.305.7506-.789.7506-1.73v-8.892c0-.407.1399-.623.6996-.623h2.4807v9.235c0 2.137-1.3485 3.028-2.5443 3.346-1.5901.42-4.0071.445-5.5082-.026-1.7937-.521-2.6206-1.59-2.6206-3.333v-8.612c0-.407.14-.623.6234-.623z"/><path d="m111.289 216.917c-.649 0-.992.28-1.132.852l-2.061 8.612h-.038l-2.112-9.451h-2.862c-.56 0-.725.28-.725.725v11.754h1.208c.178 0 .267-.102.267-.305v-9.859h.204l2.595 10.164h1.717c.624 0 .865-.267 1.031-.903l2.34-9.261h.178v10.164h2.278c.547 0 .801-.216.801-.763v-11.716h-3.689"/><path d="m73.4563 223.685h-3.2057v5.711h2.5442c.4453 0 .6615-.14.6615-.661 0-.013 0-2.443 0-5.05z"/><path d="m73.2782 221.242c.1018-.076.1781-.165.1781-.343 0-1.247 0-3.995 0-3.995h-2.4806c-.5597 0-.7251.267-.7251.662v6.03z"/><path d="m62.3126 228.404c1.3866-.203 1.8573-1.03 1.8573-2.239v-8.587c0-.508.2798-.661.6233-.661h2.5569v8.103c0 1.998-.407 3.002-1.5901 3.855-.6233.445-1.6919.941-4.0071.941-1.3485 0-1.9337-.076-2.0227-.102-.1272-.025-.1654-.076-.1654-.178 0 0 0-.801 0-1.043.547.013 1.8191.051 2.7478-.089z"/><path d="m78.3031 216.917c-1.552 0-1.552.763-1.552 1.717v3.206c0 .076-.0254.102-.0636.14l-2.1753 1.717h2.2389v5.712h2.5442c.5216 0 .7633-.178.7888-.661v-5.038h4.6559c.1272 0 .1781-.064.1781-.165v-1.272h-4.834v-3.168c0-.56.2798-.827.8268-.827h4.1089c.1145 0 .1654-.076.1654-.165v-1.196z"/><path d="m43.0283 239.125h-4.5869v4.728h-1.4414v-10.706h6.7715v1.162h-5.3301v3.662h4.5869z"/><path d="m53.1931 233.147v7.279c-.005 1.01-.3303 1.836-.976 2.478-.6406.643-1.5114 1.003-2.6125 1.081l-.3828.015c-1.1962 0-2.1496-.316-2.8603-.949-.7107-.632-1.071-1.502-1.081-2.61v-7.294h1.4263v7.25c0 .775.2177 1.378.6532 1.809.4354.426 1.056.64 1.8618.64.8157 0 1.4388-.214 1.8692-.64.4355-.427.6532-1.027.6532-1.802v-7.257z"/><path d="m60.0472 233.147h1.4489v7.581c0 1.024-.3153 1.826-.946 2.404-.6256.579-1.4614.868-2.5074.868-1.086 0-1.9318-.272-2.5374-.816s-.9084-1.307-.9084-2.287h1.4414c0 .613.1702 1.091.5105 1.434.3453.343.8433.515 1.4939.515.5956 0 1.0761-.184 1.4414-.552.3704-.368.5581-.882.5631-1.544z"/><path d="m65.4974 243.853h-1.4414v-10.706h1.4414z"/><path d="m76.1802 240.456c-.1352 1.132-.5631 2.007-1.2838 2.625-.7157.613-1.6691.919-2.8602.919-1.2913 0-2.3272-.453-3.108-1.36-.7757-.907-1.1636-2.12-1.1636-3.64v-1.029c0-.996.1802-1.871.5405-2.625.3654-.755.8808-1.334 1.5465-1.736.6656-.407 1.4364-.61 2.3122-.61 1.1611 0 2.092.319 2.7927.956.7007.632 1.1086 1.51 1.2237 2.632h-1.4489c-.1251-.853-.3979-1.47-.8183-1.853-.4154-.382-.9985-.573-1.7492-.573-.9209 0-1.6441.333-2.1696 1-.5205.666-.7807 1.615-.7807 2.845v1.037c0 1.162.2477 2.086.7432 2.772s1.1886 1.03 2.0795 1.03c.8008 0 1.4138-.177 1.8393-.53.4304-.358.7156-.978.8558-1.86z"/><path d="m86.5627 238.846c0 1.049-.1802 1.965-.5406 2.75-.3603.779-.8708 1.375-1.5314 1.786-.6607.412-1.4314.618-2.3123.618-.8608 0-1.624-.206-2.2897-.618-.6656-.416-1.1836-1.007-1.554-1.772-.3653-.769-.553-1.659-.563-2.669v-.772c0-1.029.1827-1.939.548-2.728.3654-.789.8809-1.392 1.5465-1.809.6707-.421 1.4364-.632 2.2972-.632.8759 0 1.6466.208 2.3123.625.6706.412 1.1861 1.012 1.5464 1.801.3604.785.5406 1.699.5406 2.743zm-1.4339-.692c0-1.269-.2603-2.242-.7808-2.919-.5205-.681-1.2487-1.022-2.1846-1.022-.9108 0-1.629.341-2.1545 1.022-.5205.677-.7883 1.618-.8033 2.824v.787c0 1.23.2627 2.198.7882 2.904.5306.701 1.2587 1.051 2.1846 1.051.9309 0 1.6516-.33 2.1621-.992.5105-.667.7733-1.62.7883-2.86z"/><path d="m90.1736 242.699h5.18v1.154h-6.6289v-10.706h1.4489z"/><path d="m104.91 238.846c0 1.049-.18 1.965-.54 2.75-.361.779-.871 1.375-1.532 1.786-.66.412-1.431.618-2.312.618-.8607 0-1.624-.206-2.2896-.618-.6657-.416-1.1837-1.007-1.554-1.772-.3654-.769-.553-1.659-.5631-2.669v-.772c0-1.029.1827-1.939.5481-2.728.3653-.789.8808-1.392 1.5465-1.809.6706-.421 1.4363-.632 2.2971-.632.876 0 1.647.208 2.312.625.671.412 1.186 1.012 1.547 1.801.36.785.54 1.699.54 2.743zm-1.434-.692c0-1.269-.26-2.242-.78-2.919-.521-.681-1.249-1.022-2.185-1.022-.9108 0-1.629.341-2.1545 1.022-.5205.677-.7883 1.618-.8033 2.824v.787c0 1.23.2628 2.198.7883 2.904.5305.701 1.2587 1.051 2.1845 1.051.931 0 1.652-.33 2.162-.992.511-.667.773-1.62.788-2.86z"/><path d="m111.081 239.522h-2.567v4.331h-1.449v-10.706h3.618c1.232 0 2.177.275 2.838.824.666.549.999 1.348.999 2.397 0 .666-.186 1.247-.556 1.742-.365.495-.876.865-1.531 1.111l2.567 4.544v.088h-1.546zm-2.567-1.154h2.214c.716 0 1.284-.182 1.705-.544.425-.363.638-.849.638-1.456 0-.662-.203-1.169-.608-1.522-.401-.353-.981-.532-1.742-.537h-2.207z"/><path d="m131.42 267.44-.31.09c-5.07 1.53-10.33 2.37-15.62 2.49v-219.39h15.93z" opacity=".1"/><path d="m95.68 271.07-.12 1.39c-1.64 1.55-3.19 1-4.9 1.13l-.14-5.81v-217.15h5.17v220.44z" opacity=".1"/><path d="m33.86 251.53c-1.15-.05-1.72-.08-2.87-.13v1.82c.87.04 1.3.06 2.17.1v.56c-.87-.04-1.3-.06-2.17-.1v2.69c-.27-.01-.4-.02-.66-.03 0-2.25 0-3.37 0-5.62 1.41.07 2.12.1 3.53.16z"/><path d="m35.63 256.67c-.27-.01-.4-.02-.66-.03 0-2.25 0-3.37 0-5.62.27.01.4.02.66.03z"/><path d="m37.9 256.2c1.11.04 1.67.07 2.78.11v.56c-1.38-.05-2.07-.08-3.45-.13 0-2.25 0-3.37 0-5.62.27.01.4.02.66.03.01 2.01.01 3.02.01 5.05z"/><path d="m47.1899 257.08c-.25-.01-.38-.01-.63-.02 0-1.32 0-1.98 0-3.3 0-.64.02-1.17.02-1.78-.05 0-.08 0-.13 0-.16.59-.3 1.09-.5 1.72-.42 1.33-.64 1.99-1.06 3.31-.34-.01-.51-.02-.85-.03-.41-1.35-.62-2.03-1.04-3.38-.19-.61-.33-1.13-.51-1.76-.05 0-.08 0-.13 0-.01.61.02 1.15.02 1.79v3.3c-.24-.01-.36-.01-.59-.02 0-2.25 0-3.37 0-5.62.45.02.67.02 1.11.04.4 1.34.6 2.01 1.01 3.34.17.56.34 1.15.51 1.73h.13c.2-.58.34-1.1.53-1.68.41-1.32.61-1.98 1.02-3.29.44.01.66.02 1.1.03-.01 2.25-.01 3.38-.01 5.62z"/><path d="m54.51 252.21c-1.15-.03-1.72-.04-2.87-.07v1.82c.87.02 1.3.03 2.17.05v.56c-.87-.02-1.3-.03-2.17-.05v2.69c-.27-.01-.4-.01-.66-.02 0-2.25 0-3.37 0-5.62 1.41.04 2.12.05 3.53.09z"/><path d="m59.85 254.57c0 1.85-.98 2.91-2.32 2.88-1.35-.03-2.32-1.11-2.32-2.96s.98-2.9 2.32-2.87c1.35.03 2.32 1.09 2.32 2.95zm-3.94-.07c0 1.55.66 2.38 1.62 2.4s1.62-.79 1.62-2.34c0-1.56-.66-2.38-1.62-2.4-.96-.01-1.62.78-1.62 2.34z"/><path d="m63.02 251.81c1.33.02 1.93.57 1.93 1.5 0 .69-.4 1.23-1.19 1.4.54 1.1.81 1.65 1.34 2.75-.29 0-.44-.01-.73-.01-.49-1.06-.74-1.58-1.24-2.64-.54-.01-.81-.01-1.36-.02v2.62c-.26 0-.39-.01-.65-.01 0-2.25 0-3.37 0-5.62.76.01 1.14.02 1.9.03zm-1.25 2.46c.46.01.7.01 1.16.02.94.01 1.34-.35 1.34-.98 0-.61-.35-.95-1.29-.96-.48-.01-.72-.01-1.21-.02z"/><path d="m71.82 253.58c-.19-.83-.66-1.24-1.37-1.24-.95-.01-1.66.8-1.66 2.35 0 1.54.71 2.37 1.66 2.38.75 0 1.23-.37 1.43-1.25.25.09.38.13.63.22-.32 1.11-1.04 1.59-2.07 1.58-1.35-.01-2.35-1.08-2.35-2.92 0-1.85 1.01-2.91 2.35-2.9 1.06.01 1.78.61 2.03 1.62-.25.05-.38.09-.65.16z"/><path d="m77.9599 254.71c0 1.85-.98 2.92-2.32 2.92-1.35 0-2.32-1.07-2.32-2.91 0-1.85.98-2.92 2.32-2.92 1.35.01 2.32 1.06 2.32 2.91zm-3.94.01c0 1.55.66 2.37 1.62 2.37s1.62-.82 1.62-2.36c0-1.56-.66-2.36-1.62-2.37s-1.62.8-1.62 2.36z"/><path d="m79.9 256.96c1.11 0 1.67-.01 2.79-.01v.56c-1.38.01-2.07.01-3.45.02 0-2.25 0-3.37 0-5.62h.66z"/><path d="m88.02 254.65c0 1.85-.98 2.93-2.32 2.95-1.35.01-2.32-1.04-2.32-2.89s.98-2.93 2.32-2.94c1.35-.02 2.32 1.02 2.32 2.88zm-3.93.04c0 1.55.66 2.36 1.62 2.35s1.62-.83 1.62-2.38c0-1.56-.66-2.36-1.62-2.35s-1.62.83-1.62 2.38z"/><path d="m91.1999 251.8c1.33-.02 1.93.51 1.93 1.44 0 .69-.4 1.24-1.19 1.44.54 1.08.81 1.63 1.34 2.71-.29 0-.44.01-.73.01-.49-1.04-.74-1.56-1.24-2.6-.54.01-.81.01-1.36.02v2.62c-.26 0-.39.01-.65.01 0-2.25 0-3.37 0-5.62.76-.02 1.14-.02 1.9-.03zm-1.25 2.49c.46-.01.7-.01 1.16-.02.94-.01 1.34-.39 1.34-1.02 0-.61-.35-.94-1.29-.93-.48.01-.72.01-1.21.02z"/><path d="m98.47 251.66c1.31-.03 1.95.52 1.95 1.52 0 .98-.69 1.62-2 1.65-.46.01-.7.02-1.16.02v2.46c-.26.01-.39.01-.66.01 0-2.25 0-3.37 0-5.62.75-.01 1.13-.02 1.87-.04zm-1.21 2.68c.45-.01.68-.01 1.13-.02.92-.02 1.34-.43 1.34-1.11 0-.67-.38-1.03-1.3-1.01-.47.01-.71.02-1.18.03.01.84.01 1.26.01 2.11z"/><path d="m103.55 251.54c1.33-.04 1.93.49 1.93 1.42 0 .69-.4 1.25-1.19 1.45.54 1.08.81 1.62 1.34 2.69-.29.01-.44.01-.73.02-.49-1.04-.74-1.55-1.24-2.59-.54.01-.81.02-1.36.04v2.62c-.26.01-.39.01-.65.02 0-2.25 0-3.37 0-5.62.77-.02 1.15-.03 1.9-.05zm-1.24 2.51c.46-.01.7-.02 1.16-.03.94-.03 1.33-.4 1.33-1.04 0-.61-.35-.94-1.29-.91-.48.01-.72.02-1.21.03.01.78.01 1.17.01 1.95z"/><path d="m107.45 257.05c-.27.01-.4.01-.66.02 0-2.25 0-3.37 0-5.62.27-.01.4-.01.66-.02z"/><path d="m113.16 256.85c-.34.01-.51.02-.85.03-.7-1.34-1.06-2-1.76-3.34-.31-.6-.51-1.03-.8-1.61-.05 0-.07 0-.11 0 .01.63.03 1.18.03 1.81v3.23c-.25.01-.37.01-.62.02 0-2.25 0-3.37 0-5.62.41-.01.62-.02 1.03-.03.64 1.24.97 1.86 1.61 3.09.33.62.53 1.1.79 1.66h.12c-.02-.6-.06-1.18-.06-1.84 0-1.2 0-1.79 0-2.99.25-.01.37-.01.62-.02z"/><path d="m118.45 251.58c-.7.03-1.06.04-1.76.07v5.06c-.27.01-.4.02-.67.03 0-2.02 0-3.03 0-5.06-.7.03-1.05.04-1.75.07 0-.23 0-.34 0-.56 1.67-.06 2.51-.1 4.18-.17z"/><path d="m122.24 252.28c-.2-.68-.62-.96-1.19-.94-.7.03-1.13.41-1.13.96 0 .59.28.84 1.17 1.02.1.02.15.03.24.06 1.34.28 1.68.75 1.68 1.56 0 .95-.69 1.64-1.94 1.69-1.04.05-1.75-.4-2.03-1.32.26-.1.39-.15.66-.26.18.72.71 1.07 1.36 1.04.88-.04 1.27-.47 1.27-1.04 0-.58-.22-.85-1.26-1.08-.09-.02-.13-.04-.22-.06-1.22-.27-1.59-.72-1.59-1.55 0-.78.61-1.51 1.78-1.56.91-.04 1.57.35 1.87 1.25-.27.09-.4.14-.67.23z"/><path d="m45.4219 104.953c.2459.282.4817.525.7071.73.2306.2.4638.366.6995.5.2409.128.492.223.7533.284.2614.062.5484.092.8609.092.3895 0 .7636-.046 1.1223-.138.3638-.097.6841-.241.9608-.43.2819-.19.5048-.423.6688-.7.1691-.277.2537-.597.2537-.961 0-.292-.0795-.553-.2383-.784-.1589-.23-.3716-.448-.638-.653-.2614-.205-.5637-.402-.9071-.592-.3382-.19-.6892-.39-1.053-.6-.4766-.276-.8866-.535-1.2299-.776-.3382-.241-.6175-.487-.8379-.738-.2203-.2562-.3817-.5278-.4842-.8147-.1025-.287-.1538-.615-.1538-.9839 0-.5586.1281-1.0429.3844-1.4528.2613-.41.5995-.7482 1.0146-1.0147.4151-.2716.8789-.4714 1.3913-.5995.5176-.1333 1.0352-.1999 1.5527-.1999.369 0 .7123.0282 1.03.0846.3178.0512.615.1383.8917.2613.2767.1179.5355.2716.7764.4612.2459.1896.4791.4202.6995.6918l-.884.9071c-.3382-.4766-.7226-.8251-1.153-1.0454-.4305-.2204-.9096-.3306-1.4374-.3306-.1999 0-.41.0154-.6304.0462-.2152.0256-.4278.0717-.638.1383-.2101.0615-.4099.1435-.5995.246-.1845.1025-.3485.2255-.492.369-.1383.1434-.2511.31-.3382.4996-.082.1845-.123.3946-.123.6303 0 .3536.0641.6559.1922.907s.2998.4766.515.6765c.2204.1947.4766.3766.7687.5456.2972.169.6124.346.9454.531.1692.092.3639.197.5842.315.2204.112.4459.241.6765.384s.456.307.6764.492c.2255.179.4228.384.5919.615.1742.225.3151.479.4227.761.1077.282.1615.594.1615.938 0 .589-.1307 1.099-.3921 1.529-.2613.431-.6072.787-1.0377 1.069-.4253.282-.9121.492-1.4604.63-.5432.133-1.0992.2-1.6681.2-.456 0-.8686-.036-1.2375-.108-.3639-.066-.7046-.169-1.0223-.307-.3126-.144-.6047-.323-.8763-.538s-.5381-.469-.7995-.761z"/><path d="m57.3824 95.4367-1.422 8.1783c-.0257.144-.0462.282-.0615.415-.0154.129-.0205.254-.0154.377 0 .692.2152 1.215.6457 1.568.4356.349 1.1274.523 2.0754.523.6098 0 1.1325-.059 1.5681-.177.4407-.123.8096-.305 1.1069-.546.2972-.246.5303-.548.6995-.907.1742-.364.3049-.786.392-1.268l1.422-8.1633h1.2991l-1.4067 8.0783c-.1179.672-.3049 1.266-.5611 1.784-.2562.512-.5996.943-1.03 1.291-.4305.349-.9558.612-1.5758.792-.6201.179-1.3503.269-2.1907.269-1.3017 0-2.2574-.238-2.8672-.715-.6047-.482-.907-1.22-.907-2.214 0-.358.0384-.753.1153-1.184l1.4067-8.1013z"/><path d="m67.6672 101.425 1.276-.008c.5227-.005 1.0095-.077 1.4605-.215.4561-.144.8507-.349 1.1838-.615.333-.272.5944-.6049.784-.9995.1896-.3997.2844-.8558.2844-1.3682 0-.2768-.0435-.5253-.1307-.7456-.0871-.2204-.2331-.4074-.4381-.5612-.205-.1537-.4766-.2716-.8148-.3536-.3331-.082-.7482-.123-1.2452-.123h-1.4913zm-.1691.991-.8763 5.066h-1.3067l2.0908-12.0453h3.2668c.5842 0 1.0864.064 1.5066.1921.4202.1282.7661.3126 1.0377.5535.2716.2357.4715.5201.5996.8532s.1922.7021.1922 1.1069c0 .246-.0231.5073-.0692.784-.0308.1794-.0922.3921-.1845.638-.0922.2409-.2255.4916-.3997.7536-.1691.256-.3843.51-.6457.761-.2613.251-.579.476-.9531.676-.369.195-.7969.354-1.2837.477s-1.0428.184-1.668.184z"/><path d="m82.5718 96.4974h-5.1271l-.7148 4.1046h4.0893l-.1768 1.007h-4.0893l-.8379 4.812h5.3577l-.1768 1.061h-6.6644l2.0908-12.0453h6.4338z"/><path d="m85.1238 101.355h1.2452c.5381 0 1.0352-.069 1.4912-.207.4561-.138.8481-.341 1.1761-.607.3331-.267.5919-.5948.7764-.9842.1844-.3946.2767-.8481.2767-1.3606 0-.2767-.0461-.5201-.1384-.7302-.0871-.2153-.2357-.3946-.4458-.5381-.2101-.1486-.4868-.2613-.8302-.3382-.3382-.0769-.7558-.1153-1.2529-.1153h-1.4605zm-1.0685 6.127h-1.3067l2.0908-12.0453h3.2668c.5842 0 1.0864.064 1.5066.1921.4202.123.7661.2998 1.0377.5304s.4715.5099.5996.8379c.1281.3228.1921.6841.1921 1.0838 0 .2562-.023.5227-.0691.7994-.0359.2101-.1153.4638-.2383.761-.123.2921-.3049.5897-.5458.8917-.2357.302-.538.592-.907.869-.369.271-.8225.492-1.3606.661l2.429 5.419h-1.5527l-2.2137-5.166c-.1179.021-.5074.031-1.1684.031h-.8763z"/><path d="m92.0649 107.482 2.0908-12.0453h1.3067l-2.0908 12.0453z"/><path d="m98.4833 102.447h3.5277l-.768-5.5037zm2.4827-7.0103h1.268l1.907 12.0453h-1.445l-.577-4.105h-4.0662l-1.9985 4.105h-1.2991z"/><path d="m21.6401 115.58c0-1.12-.02-2.23-.06-3.31s-.09-2.19-.14-3.32c.41.06.82.11 1.24.17.42.05.83.09 1.24.11.2.01.45.02.74.02s.58 0 .88.01.58.01.85.01.5 0 .69.01c.26.01.57.04.94.08s.77.11 1.19.22.83.26 1.24.45.78.46 1.11.8.6.76.8 1.25c.2.5.31 1.1.31 1.82 0 1.12-.24 2.02-.73 2.7-.49.67-1.08 1.19-1.79 1.54s-1.45.58-2.25.67c-.79.09-1.49.12-2.1.09-.39-.02-.75-.05-1.07-.08s-.65-.07-.99-.12v1.4c0 1.12.02 2.23.06 3.32s.09 2.17.14 3.23c-.39-.06-.81-.1-1.25-.13s-.86-.04-1.25-.03c.05-1.05.1-2.12.14-3.21s.06-2.19.06-3.32c0-1.75 0-2.63 0-4.38zm2.09 2.04c.58.17 1.18.28 1.81.31.53.03 1.07 0 1.63-.09s1.08-.28 1.54-.57c.47-.29.85-.7 1.15-1.24s.45-1.24.45-2.11c0-.73-.1-1.33-.31-1.8-.2-.47-.49-.84-.85-1.12-.37-.28-.81-.47-1.34-.6-.53-.12-1.12-.2-1.79-.24-.92-.05-1.38-.08-2.3-.14.01 3.05.01 4.57.01 7.6z"/><path d="m35.8301 116.35c0-1.12-.02-2.23-.06-3.31s-.09-2.19-.14-3.31c.49.06.98.11 1.46.16s.96.08 1.46.1c.49.02.98.02 1.45 0 .48-.02.96-.02 1.46 0 .71.03 1.4.12 2.04.28.65.16 1.21.41 1.7.74.48.33.87.76 1.15 1.28s.42 1.16.42 1.93c0 .82-.18 1.51-.55 2.09s-.81 1.04-1.34 1.41c-.53.36-1.09.64-1.7.83-.6.19-1.15.31-1.65.36.2.26.48.63.84 1.11.36.47.76 1 1.2 1.57s.9 1.17 1.38 1.79.94 1.22 1.38 1.79.86 1.09 1.25 1.56.71.83.94 1.08c-.26-.04-.51-.07-.77-.08s-.51-.02-.77-.03c-.24-.01-.48-.02-.74-.03s-.5 0-.74.03c-.25-.37-.64-.92-1.16-1.65s-1.09-1.52-1.72-2.36-1.27-1.68-1.93-2.52-1.26-1.55-1.8-2.13c-.39-.02-.58-.03-.97-.04v1.86c0 1.12.02 2.23.06 3.32s.09 2.17.14 3.22c-.39-.05-.81-.09-1.25-.11s-.86-.02-1.25-.01c.05-1.05.1-2.12.14-3.21s.06-2.19.06-3.32c.01-1.76.01-2.64.01-4.4zm2.09 1.55c.24.06.5.11.78.14s.59.05.93.07c.53.02 1.08-.01 1.65-.11s1.09-.28 1.57-.56.87-.66 1.19-1.15c.31-.49.47-1.12.47-1.88 0-.66-.12-1.22-.37-1.66s-.57-.8-.96-1.07-.82-.46-1.28-.57-.91-.18-1.35-.19c-.6-.02-1.09-.03-1.48-.02s-.72.02-1 .05c-.03.94-.07 1.86-.1 2.78s-.05 1.84-.05 2.76z"/><path d="m51.3701 113.6c-.04-1.09-.09-2.18-.14-3.27.77.06 1.53.11 2.29.15.76.05 1.52.08 2.29.1s1.52.02 2.27.01 1.51-.02 2.27-.04c-.05.25-.08.51-.08.76s.03.51.08.77c-.55-.04-1.04-.09-1.49-.13s-.93-.09-1.43-.13-1.05-.09-1.65-.13-1.31-.07-2.15-.09c-.02.54-.04 1.06-.06 1.56-.03.49-.04 1.05-.04 1.68 0 .66 0 1.31.01 1.94s.01 1.11.01 1.43c.75.02 1.42.03 2.02.03s1.14-.01 1.63-.03c.49-.01.95-.03 1.37-.05s.81-.04 1.19-.07c-.05.25-.08.52-.08.79 0 .26.03.51.08.77-.44-.06-.96-.11-1.55-.16s-1.17-.08-1.76-.1-1.14-.04-1.66-.07c-.52-.02-.93-.04-1.24-.05 0 .15 0 .32-.01.5s-.01.4-.01.68v1 1.53c0 .97 0 1.77.01 2.4s.02 1.11.04 1.43c.56.01 1.16.03 1.79.05.65.02 1.28.02 1.9.01s1.21-.03 1.76-.06 1.03-.09 1.44-.16c-.03.12-.06.25-.06.39-.01.14-.01.28-.01.4 0 .27.03.49.08.67-.77-.05-1.53-.08-2.29-.1s-1.53-.03-2.31-.05-1.56-.04-2.32-.06c-.77-.02-1.54-.03-2.32-.01.05-1.09.1-2.17.14-3.25s.06-2.18.06-3.3c0-1.76 0-2.63 0-4.39-.01-1.16-.03-2.26-.07-3.35z"/><path d="m69.4 117.38c1.2 2.29 2.46 4.64 3.77 7.05.17-.32.42-.79.74-1.39s.7-1.3 1.12-2.08c.43-.78.88-1.63 1.37-2.54s.98-1.83 1.48-2.77 1-1.86 1.49-2.76.95-1.75 1.38-2.53h.33c.19 1.63.36 3.21.52 4.73s.33 3.02.5 4.49.34 2.93.51 4.36c.17 1.44.36 2.86.56 4.27-.2-.03-.4-.05-.6-.05s-.4 0-.6 0-.4 0-.6 0-.4.02-.6.05c-.19-2.26-.37-4.46-.56-6.59s-.42-4.3-.69-6.51c-.02 0-.03 0-.05 0-1.17 2.15-2.33 4.28-3.46 6.4s-2.21 4.33-3.23 6.64c-.09 0-.14 0-.23 0-1.02-2.15-2.09-4.31-3.21-6.47s-2.24-4.38-3.36-6.64c-.02 0-.03 0-.05 0-.12 1.05-.25 2.2-.4 3.43s-.28 2.45-.4 3.65-.22 2.33-.31 3.39-.13 1.93-.13 2.62c-.27-.04-.57-.06-.89-.06s-.62.01-.89.04c.22-1.38.45-2.83.69-4.36s.47-3.07.69-4.61c.22-1.55.43-3.07.61-4.57.19-1.5.35-2.94.49-4.3.17 0 .26 0 .43.01 1.19 2.45 2.38 4.81 3.58 7.1z"/><path d="m86.8501 113.96c-.04-1.08-.09-2.18-.14-3.31.22.03.43.06.64.08.2.02.41.03.61.03s.41-.02.61-.05.42-.06.64-.1c-.05 1.12-.1 2.23-.14 3.31s-.06 2.18-.06 3.31v4.39c0 1.12.02 2.23.06 3.32s.09 2.16.14 3.22c-.39-.03-.81-.04-1.25-.04-.44.01-.86.03-1.25.07.05-1.06.1-2.13.14-3.22s.06-2.2.06-3.32c0-1.76 0-2.64 0-4.39 0-1.12-.02-2.22-.06-3.3z"/><path d="m107.32 118.49c0-2.42-.01-4.28-.03-5.59s-.06-2.21-.13-2.7c.19.03.37.05.54.07s.34.03.51.02c.22-.01.48-.06.77-.15-.05.6-.1 1.31-.15 2.14s-.09 1.71-.13 2.66c-.03.95-.07 1.92-.1 2.91-.03 1-.06 1.97-.08 2.9-.02 1.14-.19 2.17-.52 3.08s-.8 1.7-1.42 2.35c-.61.65-1.37 1.15-2.26 1.5s-1.92.54-3.08.57c-2.55.07-4.41-.47-5.57-1.6s-1.74-2.95-1.74-5.46c0-.8.02-1.51.06-2.13s.06-1.26.06-1.9c0-1.43-.02-2.7-.05-3.8-.03-1.11-.07-2.04-.1-2.81.2.03.43.06.66.08.24.02.46.03.66.02.19 0 .37-.02.55-.05s.36-.06.55-.1c-.03.38-.07.87-.1 1.47s-.07 1.29-.1 2.06-.06 1.59-.08 2.48-.03 1.81-.03 2.76c0 .58.01 1.18.03 1.8s.08 1.22.18 1.81.27 1.14.5 1.67.56.99.98 1.38c.43.39.96.69 1.61.91.65.21 1.45.31 2.4.28.94-.03 1.72-.19 2.36-.48s1.16-.67 1.57-1.12c.41-.46.73-.98.96-1.56.23-.59.4-1.2.5-1.83s.16-1.26.18-1.9c.03-.64.04-1.21.04-1.74z"/><path d="m119.07 116.43c1.2 2.22 2.45 4.5 3.76 6.84.17-.33.42-.81.74-1.43s.7-1.33 1.12-2.14c.43-.81.88-1.68 1.36-2.61.48-.94.98-1.89 1.48-2.85s1-1.91 1.49-2.84.95-1.8 1.38-2.61c.13-.01.2-.01.33-.02.19 1.62.36 3.19.52 4.7s.33 3 .5 4.46.34 2.91.51 4.33.36 2.84.56 4.24c-.2-.02-.4-.03-.6-.01-.2.01-.4.02-.6.04s-.4.02-.6.04c-.2.01-.4.04-.6.09-.19-2.25-.37-4.44-.56-6.55-.19-2.12-.42-4.27-.69-6.47-.02 0-.03 0-.05 0-1.17 2.21-2.33 4.41-3.46 6.59s-2.21 4.46-3.23 6.82c-.09 0-.14.01-.23.01-1.02-2.09-2.09-4.19-3.2-6.29s-2.23-4.25-3.36-6.45c-.02 0-.03 0-.05 0-.12 1.06-.25 2.21-.4 3.45-.14 1.24-.28 2.46-.4 3.67-.12 1.2-.22 2.34-.31 3.41s-.13 1.94-.13 2.62c-.27-.02-.57-.03-.89-.01s-.62.04-.89.09c.22-1.39.45-2.85.69-4.39s.47-3.09.69-4.65.43-3.09.61-4.61c.19-1.51.35-2.96.48-4.32.17-.01.26-.01.43-.02 1.22 2.35 2.4 4.64 3.6 6.87z"/></g><path d="m54 178h7v6h-7z" fill="#f0e9e8"/><path d="m71 171h12v22h-12z" fill="#f0e9e8"/><path d="m74 193h7v2h-7z" fill="#f0e9e8"/><path d="m108 192h8v3h-8z" fill="#f0e9e8"/><path d="m106 164h12v28h-12z" fill="#f0e9e8"/></g></svg>