<svg fill="none" height="295" viewBox="0 0 196 295" width="196" xmlns="http://www.w3.org/2000/svg" xmlns:xlink="http://www.w3.org/1999/xlink"><clipPath id="a"><path d="m.039978 0h195.04v294.92h-195.04z"/></clipPath><g clip-path="url(#a)"><path d="m193.33 60.16c-.07-4.19-3.49-7.56-7.68-7.56h-38.81l-.33 7.35h2.65c1.07 0 1.95.87 1.95 1.95v9.88c0 1.07-.87 1.95-1.95 1.95h-3.28l-4.94 108.87 37.92 1.12c8.98.27 16.36-7.02 16.22-16zm-24.66 11.84c0 1.07-.87 1.95-1.95 1.95h-3.89c-1.07 0-1.95-.87-1.95-1.95v-9.88c0-1.07.87-1.95 1.95-1.95h3.89c1.07 0 1.95.87 1.95 1.95zm17.38.15c0 .87-.7 1.57-1.57 1.57h-4.86c-.87 0-1.58-.71-1.57-1.58.02-2.5.05-7.32.03-9.81-.01-.87.7-1.58 1.57-1.58h4.83c.87 0 1.57.7 1.57 1.57z" fill="#7e7376"/><path d="m2.34998 277.75v3.46h145.91002v-121.52-27.07-50.19-27.07-11.25h-137.93v233.64z" fill="#f5f6f3"/><path d="m2.34998 120.21v27.06 37.82 27.07 65.59h16.37002v-233.64h-16.37002z" fill="#239f28"/><path d="m.539978 286.97c1.440002 1.21 3.910002 3.91 23.800022 6.04 19.89 2.13 80.27 3.2 101.94-.71s22.38-5.68 24.15-7.81v-16.34h-2.27s6.6 10.39-74.27 10.43c-72.52002.04-71.55002-7.76-71.55002-9.24-.94 0-1.750002 0-1.750002 0s-.05 16.23-.05 17.63z" fill="#0e0f0c"/><path d="m110.98 278.87c-4.63.19-16.17 1.09-33.13.91" opacity=".5" stroke="#fff" stroke-linecap="round" stroke-linejoin="round" stroke-miterlimit="10"/><path d="m1.68999 270.77s.88 5.86 25.45001 7.02" opacity=".5" stroke="#fff" stroke-linecap="round" stroke-linejoin="round" stroke-miterlimit="10"/><path d="m147.76 46.09v214.37" opacity=".4" stroke="#fff" stroke-linecap="round" stroke-linejoin="round" stroke-miterlimit="10"/><path d="m150.86 46.43h-150.820018v-13.85c0-1.53-.0199999-2.6 2.779998-2.78 42.40002-7.97 145.26002 0 145.26002 0 1.53 0 2.78 1.24 2.78 2.78z" fill="#0e0e0c"/><path d="m40.82 30.5v-28.19002c0-.64.48-1.17 1.11-1.23 5.39-.500001 29.93-2.4 63.57.43.64.05 1.14.59 1.14 1.23v27.34002c0 .01-65.82-.64-65.82.42z" fill="#100f0d"/><path d="m48.98 1.51s18.69-1.370002 49.28.46" opacity=".5" stroke="#969696" stroke-linecap="round" stroke-linejoin="round" stroke-miterlimit="10"/><path d="m26.98 28.14c4.63-.19 16.17-1.09 33.13-.91" opacity=".5" stroke="#969696" stroke-linecap="round" stroke-linejoin="round" stroke-miterlimit="10"/><path d="m124.17 29.12c-4.28-.24-11.06-.92-21.59-.83" opacity=".5" stroke="#969696" stroke-linecap="round" stroke-linejoin="round" stroke-miterlimit="10"/><path d="m53.99 215.88-24.18-.22.06-7 24.18.22z" fill="#000"/><path d="m54.24 191.22-.14 16.1-24.18-.22.06-7 18.42.16.08-9.1z" fill="#000"/><path d="m54.27 189.91-24.18-.22.15-16.9 5.51.05-.09 9.9 4.8.04.08-8.96 5.31.05-.08 8.96 8.55.08z" fill="#000"/><path d="m49.75 151.34c1.68.88 2.98 2.16 3.89 3.83.91 1.68 1.36 3.73 1.34 6.15-.02 2.4-.5 4.43-1.45 6.1-.94 1.67-2.26 2.93-3.96 3.79s-3.67 1.28-5.93 1.26l-2.5-.02c-2.29-.02-4.28-.47-5.96-1.36s-2.98-2.18-3.89-3.86-1.36-3.73-1.34-6.12c.02-2.42.51-4.46 1.46-6.12s2.28-2.92 3.97-3.76c1.69-.85 3.67-1.26 5.95-1.24l2.5.02c2.27 0 4.24.45 5.92 1.33zm-11.64 6.25c-.83.32-1.46.79-1.9 1.39s-.66 1.33-.67 2.16c-.01.84.2 1.56.63 2.18.43.61 1.05 1.09 1.87 1.43s1.85.51 3.08.52l2.62.02c1.22.01 2.24-.15 3.09-.47.84-.32 1.47-.79 1.9-1.39.42-.6.64-1.33.65-2.16s-.2-1.56-.61-2.18c-.41-.61-1.04-1.09-1.87-1.42-.84-.34-1.86-.51-3.08-.52l-2.62-.02c-1.23-.02-2.26.14-3.09.46z" fill="#000"/><path d="m31.67 133.26c.69-1.39 1.66-2.43 2.9-3.13s2.69-1.04 4.34-1.02c1.31.01 2.43.27 3.37.77.93.5 1.68 1.09 2.25 1.76s.96 1.26 1.18 1.77l9.16-4.68-.07 7.7-8.25 3.86-.02 2.27 8.22.07-.06 6.85-24.18-.22.1-10.86c.01-2.03.37-3.75 1.06-5.14zm10.16 6.35c.01-.9-.23-1.67-.72-2.31s-1.25-.97-2.28-.98c-1.04-.01-1.82.31-2.36.95-.53.64-.8 1.4-.81 2.26l-.03 2.94 6.16.06z" fill="#000"/><path d="m30.82 118.33c.02-2.6.54-4.7 1.54-6.32 1-1.61 2.4-2.8 4.19-3.55 1.8-.75 3.9-1.12 6.32-1.09 2.46.02 4.6.43 6.43 1.24 1.83.8 3.24 2.02 4.24 3.66.99 1.64 1.48 3.73 1.46 6.28l-.09 10.22-24.18-.22zm18.73 3.4.02-1.98c.01-.93-.12-1.73-.39-2.38s-.67-1.18-1.23-1.6c-.55-.41-1.24-.72-2.06-.91-.83-.2-1.79-.3-2.88-.31-1.48-.01-2.71.15-3.71.48s-1.76.87-2.27 1.62-.78 1.74-.79 2.98l-.02 1.98z" fill="#000"/><path d="m99 190.81h-15.97v12.2h15.97v12.97h-42.16v-12.97h15.91v-12.2h-15.91v-12.97h42.17v12.97z" fill="#25b532"/><path d="m59.03 147.4c1.46-2.29 3.37-3.99 5.73-5.1s4.89-1.67 7.58-1.67c2.74 0 5.27.57 7.58 1.7 2.32 1.13 4.18 2.86 5.58 5.19s2.1 5.27 2.1 8.83v6.12h11.4v12.94h-42.16v-19.24c0-3.56.73-6.48 2.19-8.77zm8.88 7.97c-1 1.09-1.5 2.53-1.5 4.32v2.84h11.86v-2.84c0-1.19-.23-2.24-.69-3.13-.46-.9-1.14-1.59-2.02-2.09-.89-.49-1.96-.74-3.21-.74-1.96.01-3.44.55-4.44 1.64z" fill="#25b532"/><path d="m86.53 128.14c.45-.06.89-.24 1.31-.54s.8-.68 1.13-1.14.59-1 .79-1.62.29-1.29.29-2.01c0-1.11-.23-2.07-.69-2.89-.46-.81-1.1-1.45-1.9-1.9s-1.71-.68-2.72-.68-1.92.22-2.72.66-1.44 1.07-1.9 1.87-.7 1.73-.7 2.78c0 .91.16 1.67.46 2.29.31.62.67 1.12 1.08 1.5s.78.65 1.11.82v11.55l-25.24-1.54v-29.32h9.89v19.4l7.23.56v-.59c-.45-.27-.96-.76-1.53-1.47s-1.06-1.65-1.47-2.83c-.41-1.17-.62-2.58-.62-4.23 0-2.37.52-4.59 1.56-6.66s2.59-3.75 4.65-5.05 4.63-1.95 7.72-1.95c3.21 0 5.97.74 8.28 2.22s4.08 3.54 5.31 6.18c1.24 2.64 1.85 5.69 1.85 9.17 0 2.64-.34 4.99-1.02 7.07s-1.63 3.85-2.84 5.31-2.62 2.58-4.22 3.35-3.3 1.16-5.11 1.16v-11.47z" fill="#25b532"/><path d="m95.72 271.07-.12 1.39c-1.64 1.55-3.19 1-4.9 1.13l-.14-5.81v-217.15h5.17v220.44z" fill="#fff" opacity=".1"/><path d="m101.918 105.656v110.76h25.27v-110.76z" fill="#1a1713"/><path d="m105.42 182.06c.68-1.09 1.59-1.9 2.71-2.43 1.12-.54 2.33-.8 3.61-.8 1.31 0 2.51.27 3.61.81s1.98 1.36 2.64 2.47.99 2.5.99 4.17v3.14h5.71v5.86h-20.3v-9.07c.01-1.69.35-3.07 1.03-4.15zm4.11 3.51c-.5.54-.76 1.26-.76 2.16v1.7h5.95v-1.7c0-.59-.12-1.12-.35-1.57s-.57-.8-1.01-1.04-.98-.36-1.61-.36c-.98-.01-1.72.26-2.22.81z" fill="#fefefe"/><path d="m124.7 164.25v13.52h-20.3v-5.88h15.47v-7.65h4.83z" fill="#fefefe"/><path d="m119.41 151.93c-.53-.56-1.37-.84-2.52-.84h-12.49v-5.89h13.28c1.49 0 2.78.36 3.89 1.08s1.96 1.74 2.57 3.06.92 2.9.92 4.72c0 1.81-.31 3.39-.92 4.72s-1.47 2.35-2.57 3.06-2.4 1.07-3.89 1.07h-13.28v-5.88h12.49c1.16 0 2-.28 2.53-.84s.79-1.27.79-2.13-.27-1.57-.8-2.13z" fill="#fefefe"/><path d="m118.6 138.5c.26-.02.51-.1.76-.25.25-.14.47-.35.68-.61.2-.26.36-.59.48-.97s.18-.83.18-1.34c0-.67-.08-1.21-.25-1.61-.16-.4-.38-.69-.66-.88-.27-.18-.57-.27-.88-.27-.57 0-.98.25-1.23.74-.26.49-.48 1.21-.65 2.15l-.48 2.56c-.21 1.1-.55 2.08-1.01 2.94-.47.86-1.11 1.53-1.92 2.02s-1.82.73-3.03.73c-1.38 0-2.55-.35-3.52-1.04s-1.72-1.66-2.23-2.91c-.52-1.24-.77-2.69-.77-4.35 0-1.85.3-3.38.92-4.59.61-1.2 1.4-2.1 2.36-2.69s1.97-.89 3.03-.9v5.34c-.32.03-.63.15-.94.36s-.57.52-.77.93c-.21.41-.31.93-.31 1.55 0 .84.17 1.46.51 1.87.34.4.76.6 1.26.6.47 0 .83-.24 1.11-.71.27-.48.48-1.13.62-1.96l.45-2.69c.16-.97.45-1.89.88-2.75s1.05-1.57 1.87-2.11c.82-.55 1.91-.82 3.27-.82 1.31 0 2.47.32 3.49.96s1.82 1.6 2.4 2.88.88 2.89.88 4.83c0 1.61-.19 2.95-.56 4.04s-.87 1.96-1.49 2.62-1.32 1.14-2.08 1.44c-.76.29-1.54.44-2.32.45v-5.56z" fill="#fefefe"/><path d="m131.57 174.74c2.85-.26 4.27-.39 7.12-.65-.01-.84-.02-1.26-.03-2.11.8-.06 1.2-.09 1.99-.15.01.83.02 1.24.03 2.07 1-.09 1.5-.14 2.5-.23.03 1.82.04 2.74.08 4.56-1 .13-1.5.2-2.5.33.06 2.85.1 4.27.19 7.12-.88.17-1.33.26-2.21.43-2.86-2.74-4.28-4.21-7.11-7.33-.02-1.61-.03-2.42-.06-4.04zm3.48 4.58c1.53 1.63 2.3 2.42 3.84 3.94-.05-1.77-.07-2.66-.11-4.43-1.49.2-2.23.29-3.73.49z" fill="#000"/><path d="m137.36 156.17c4.01.24 5.92 3.32 5.92 7.04 0 3.75-1.96 6.8-5.92 7.03-4.04.23-6.02-2.95-6.02-7.04s2.01-7.27 6.02-7.03zm3.44 7.03c0-1.24-.77-1.85-3.42-1.89-2.27-.04-3.58.27-3.58 1.91 0 1.15.79 1.91 3.57 1.87 2.41-.04 3.43-.39 3.43-1.89z" fill="#000"/><path d="m137.68 140.34c3.99.77 5.84 4.11 5.75 7.83-.08 3.75-2.11 6.53-6.06 6.24-4.04-.3-5.95-3.75-5.86-7.83.1-4.09 2.18-7.01 6.17-6.24zm3.29 7.5c.03-1.24-.72-1.95-3.38-2.35-2.26-.34-3.58-.21-3.62 1.44-.03 1.15.74 2.01 3.52 2.34 2.42.28 3.44.07 3.48-1.43z" fill="#000"/><path d="m111.358 211.486v1.75h1.75v-1.75z" fill="#fff"/><path d="m108.63 208.678v1.75h1.75v-1.75z" fill="#fff"/><path d="m105.696 205.984v1.75h1.75v-1.75z" fill="#fff"/><path d="m101.832 208.407v8.19h2.01v-8.19z" fill="#f5f6f3"/><path d="m106.73 211.49h-3.92v1.7h3.92z" fill="#f5f6f3"/><path d="m108.071 213.497v3.92h1.7v-3.92z" fill="#f5f6f3"/><path d="m105.31 214.86h-2.83v1.65h2.83z" fill="#f5f6f3"/><path d="m117.842 110.611v-1.75h-1.75v1.75z" fill="#fff"/><path d="m120.581 113.413v-1.75h-1.75v1.75z" fill="#fff"/><path d="m123.515 116.099v-1.75h-1.75v1.75z" fill="#fff"/><path d="m127.372 113.685v-8.19h-2.01v8.19z" fill="#f5f6f3"/><path d="m122.481 110.603h3.92v-1.7h-3.92z" fill="#f5f6f3"/><path d="m121.131 108.594v-3.92h-1.7v3.92z" fill="#f5f6f3"/><path d="m123.923 107.233h2.83v-1.65h-2.83z" fill="#f5f6f3"/><g fill="#fff"><path d="m131.46 267.44-.31.09c-5.07 1.53-10.33 2.37-15.62 2.49v-219.39h15.93z" opacity=".1"/><path d="m14.07 240.21c-3.15-1.35-4.72002-2.02-7.87002-3.37 0-.16 0-.24 0-.41 3.15 1.34 4.72002 2.01 7.87002 3.35z"/><path d="m12.12 236.43c.18.06.37.09.57.09s.39-.05.57-.16.33-.28.44-.53.17-.59.17-1.01c0-.46-.08-.89-.23-1.29s-.36-.75-.63-1.04c-.26-.29-.56-.5-.9-.63-.51-.2-.89-.18-1.13.05s-.45.62-.62 1.17c-.1.35-.16.53-.26.88-.10003.34-.24003.61-.41003.8-.17.2-.39.31-.65.35-.26.03-.57-.02-.93-.17-.41-.17-.78-.42-1.09-.75s-.57-.71-.75-1.15-.27-.91-.27-1.42c0-.52.09-.93.27-1.21s.42-.46.71-.53.61-.05.94.08v.42c-.24-.08-.47-.1-.71-.05s-.44.18-.59.41c-.16.23-.24.57-.24 1.04 0 .63.16 1.19.48 1.68s.73.84 1.25 1.05c.46.19.81.2 1.05.03s.43-.48.57-.93c.1-.34.15-.5.25-.84.13003-.42.28003-.76.45003-1.01s.39-.41.65-.48.6-.02 1 .14c.44.17.82.43 1.15.79s.58.78.76 1.26.27 1 .27 1.55c0 .49-.07.88-.2 1.17-.14.29-.31.5-.53.62-.22.13-.45.19-.7.19s-.49-.05-.71-.14c0-.17 0-.26 0-.43z"/><path d="m12.65 224.28c.51.41.91.9 1.19 1.46s.42 1.16.42 1.81-.14 1.15-.42 1.5-.68.55-1.19.59-1.11-.06-1.79-.32c-.58-.22-.87003-.33-1.44003-.54-.69-.26-1.29-.6-1.79-1.02-.51-.42-.9-.9-1.18-1.44s-.42-1.12-.42-1.75c0-.62.14-1.1.42-1.44s.68-.54 1.19-.59 1.11.04 1.79.27c.57.2.86003.3 1.44003.5.67.23 1.26.55 1.78.97zm-4.83003-1.31c-.45.05-.8.22-1.05.51s-.37.7-.37 1.22.12 1.02.37 1.49.6.89 1.05 1.27c.45.37.97.67 1.56.89.61.23.91003.34 1.52003.57.59.22 1.1.31 1.55.27s.8-.21 1.05-.51.38-.73.38-1.28-.12-1.06-.38-1.55-.6-.9-1.05-1.27c-.45-.36-.97-.65-1.55-.85-.61-.21-.91003-.32-1.52003-.53-.6-.2-1.12-.27-1.56-.23z"/><path d="m6.19997 213.51c2.22.67 3.33 1 5.55003 1.67 0-.47 0-.7 0-1.17.15.04.22.07.37.11v1.17c.78.23 1.17.35 1.95.59v.4c-.78-.24-1.17-.35-1.95-.59v3.87c-.15-.05-.23-.07-.38-.12-.92-.89-1.84003-1.79-2.77003-2.68s-1.85-1.77-2.78-2.63c.01-.25.01-.38.01-.62zm5.55003 2.06c-2.07003-.63-3.11003-.94-5.19003-1.57v.02c.85.8 1.71 1.62 2.58 2.45.87003.83 1.72003 1.66 2.58003 2.5.01 0 .02.01.03.01 0-1.36 0-2.04 0-3.41z"/><path d="m9.89998 212.13c-.82-.24-1.52-.55-2.1-.94s-1.02-.82-1.33-1.3c-.3-.48-.46-.96-.46-1.45 0-.5.15-.89.46-1.2s.75-.5 1.32-.57c.58-.08 1.28-.01 2.11.2.19002.05.28002.07.47002.12.62.16 1.17.37 1.65.63s.89.55 1.22.88.58.68.76 1.06c.17.37.26.75.26 1.13 0 .52-.15.94-.46 1.25-.3.32-.74.51-1.32.58s-1.28-.02-2.11-.26c-.19-.05-.28-.07-.47002-.13zm.50002-.28c.74.21 1.37.29 1.89.24s.91-.21 1.18-.48c.27-.26.41-.61.41-1.03s-.13-.84-.41-1.25c-.27-.41-.67-.78-1.18-1.12-.52-.34-1.15-.6-1.89-.79-.2-.05-.31-.08-.51002-.13-.74-.19-1.37-.26-1.89-.2s-.92.21-1.19.47c-.27.25-.41.58-.41.99 0 .4.14.81.41 1.21s.67.78 1.19 1.12 1.15.62 1.9.83c.19002.05.29002.08.50002.14z"/><path d="m9.89998 205.29c-.82-.21-1.52-.49-2.1-.86s-1.02-.79-1.33-1.25c-.3-.46-.46-.94-.46-1.44s.15-.9.46-1.22.75-.53 1.32-.62c.58-.1 1.28-.06 2.11.13.19002.04.28002.06.47002.1.62.14 1.17.32 1.65.57.48.24.89.52 1.22.84s.58.66.76 1.03c.17.37.26.74.26 1.13 0 .52-.15.94-.46 1.27-.3.33-.74.54-1.32.63s-1.28.03-2.11-.18c-.19-.06-.28-.09-.47002-.13zm.50002-.3c.74.18 1.37.24 1.89.17s.91-.24 1.18-.52c.27-.27.41-.62.41-1.05 0-.42-.13-.83-.41-1.23-.27-.4-.67-.76-1.18-1.08-.52-.32-1.15-.56-1.89-.72-.2-.05-.31-.07-.51002-.11-.74-.17-1.37-.21-1.89-.13s-.92.25-1.19.51-.41.6-.41 1 .14.8.41 1.2c.27.39.67.75 1.19 1.07s1.15.58 1.9.76c.19002.05.29002.08.50002.13z"/><path d="m15.76 200.23c-4-2.03-6.00002-3.02-10.00002-4.92 0-.16 0-.24 0-.41 4 1.9 6.00002 2.88 10.00002 4.9z"/><path d="m8.13998 194.28c-.01 0-.01 0-.02 0-.25-.05-.51-.14-.76-.29-.25-.14-.47-.33-.67-.56s-.36-.5-.49-.8c-.12-.31-.19-.65-.19-1.03 0-.5.1-.89.29-1.19s.44-.51.76-.63c.31-.12.66-.15 1.03-.08.33.06.63.17.91.33s.53.36.77.58c.24002.22.45002.43.65002.64 1.3 1.37 1.95 2.06 3.26 3.47.01 0 .02 0 .03.01 0-1.72 0-2.58 0-4.3.15.02.22.04.37.06v4.89c-.14-.03-.21-.04-.34-.07-1.44-1.55-2.16-2.32-3.59-3.82-.19002-.2-.39002-.39-.59002-.59-.21-.19-.43-.36-.68-.5s-.52-.24-.82-.29c-.28-.05-.54-.02-.8.07s-.46.26-.62.5-.24.57-.24.98c0 .4.08.76.25 1.07s.38.56.64.75.54.32.83.37h.01.01z"/><path d="m6.19997 183.43c.16.02.24.03.4.05 2.99 1.75 4.48003 2.64 7.47003 4.5v.47c-2.99-1.87-4.48003-2.78-7.47003-4.54-.01 0-.02 0-.03 0v4.19c-.15-.02-.23-.04-.38-.06.01-1.84.01-2.77.01-4.61z"/><path d="m6.09998 179.44c.85.1 1.55.87 1.55 1.7 0 .84-.7 1.44-1.55 1.33-.84-.11-1.54-.88-1.54-1.71-.01-.84.72-1.41 1.54-1.32zm0 2.53c.58.07 1.04-.32 1.04-.89 0-.56-.46-1.07-1.04-1.14-.57-.07-1.03.33-1.03.88-.01.59.48 1.08 1.03 1.15z"/></g><path d="m14.63 170.32c-1.43-.09-2.15-.13-3.58-.22v2.9c1.43.11 2.15.16 3.58.27v2.74c-3.7-.34-5.55003-.51-9.25003-.84 0-1.04 0-1.57 0-2.61 1.42.11 2.12.16 3.54.27 0-1.14 0-1.72 0-2.86-1.42-.09-2.12-.13-3.54-.22 0-1.04 0-1.57 0-2.61 3.7.17 5.55003.26 9.25003.43z" fill="#f5f6f3"/><path d="m5.83996 159.36c.31-.48.72-.84 1.23-1.08s1.06001-.36 1.65-.37c.60001 0 1.15.12 1.65004.36.5.25.9.62 1.2 1.13s.45 1.15.45 1.92v1.44c1.04.02 1.56.03 2.6.06v2.73c-3.7-.13-5.55004-.2-9.25004-.34 0-1.61 0-2.42 0-4.03 0-.73.16-1.34.47-1.82zm1.87 1.58c-.23.24-.35.56-.35.97v.76c1.08.02 1.63.04 2.71004.06 0-.31 0-.46 0-.77 0-.27-.05-.51-.16004-.72-.11-.21-.26-.37-.46-.48s-.45-.17-.74-.17c-.43 0-.77.11-1 .35z" fill="#f5f6f3"/><path d="m11.95 154.29c.11-.02.22-.06.32-.14s.19-.17.26-.28c.08-.11.14-.24.18-.39s.06-.3.06-.47c0-.26-.05-.48-.16-.67s-.26-.34-.45-.44c-.19-.11-.41-.15-.66-.14-.24.01-.45.07-.64.18s-.34.27-.44.46c-.11.19-.16.41-.16.66 0 .21.04.39.11.53s.16.26.25.35c.1.09.18.16.26.19v2.39c-2.20004-.11-3.31004-.17-5.51004-.28 0-2.46 0-3.69 0-6.14.82-.04 1.23-.06 2.05-.1v4.19c.69.04 1.04.06 1.73.09 0-.05 0-.08 0-.13-.1-.06-.20999-.16-.33999-.31-.12-.15-.23001-.35-.32001-.61-.09-.25-.13999-.56-.13999-.91 0-.52.11999-1.01.34999-1.46.23-.46.57-.84 1.02-1.14.45004-.31 1.01004-.48 1.69004-.51.7-.03 1.3.1 1.81.4.5.3.89.74 1.16 1.31s.41 1.24.41 2.01c0 .58-.07 1.1-.22 1.56s-.35.85-.61 1.18-.56.58-.91.75c-.34.17-.71.26-1.1.27 0-.95 0-1.43 0-2.4z" fill="#f5f6f3"/><path d="m6.47998 139.14c.19-.38.46-.68.8-.9s.75-.36 1.23-.42c.46-.05.87 0 1.21.15.35002.15.61002.4.80002.74.18.34.28.78.28 1.31v2.09c1.31-.12 1.96-.17 3.27-.29v.42c-3.15.27-4.72002.4-7.87002.68 0-.98 0-1.47 0-2.44 0-.52.09-.97.28-1.34zm.61-.22c-.34.39-.5.89-.5 1.53v2.03c1.53-.13 2.3-.2 3.84002-.34 0-.83 0-1.25 0-2.08 0-.43-.08-.79-.23-1.08s-.37002-.5-.66002-.62-.63-.17-1.03-.13c-.61.08-1.08.31-1.42.69z" fill="#fff"/><path d="m14.07 130.85v4.5c-3.15.38-4.72002.58-7.87002.96 0-.16 0-.24 0-.41 3-.37 4.49002-.56 7.49002-.93 0-1.62 0-2.44 0-4.06.15-.02.23-.03.38-.06z" fill="#fff"/><path d="m13.18 124.87c-.45-.33-1.06-.43-1.81-.29-2.07002.37-3.10002.56-5.17002.94 0-.17 0-.25 0-.41 2.06-.38 3.1-.57 5.16002-.95.58-.11 1.09-.09 1.52.06s.77.41 1.01.79.36.88.36 1.49c0 .6-.12 1.14-.36 1.6s-.58.84-1.01 1.13-.94.48-1.52.57c-2.06002.32-3.10002.47-5.16002.79 0-.16 0-.25 0-.41 2.07-.32 3.1-.48 5.17002-.8.76-.12 1.36-.42 1.81-.91s.68-1.12.68-1.9c0-.8-.23-1.36-.68-1.7z" fill="#fff"/><path d="m12.12 121.83c.18-.05.37-.13.57-.25s.39-.29.57-.51.33-.48.44-.8.17-.69.17-1.12c0-.46-.08-.84-.23-1.15s-.36-.53-.62-.66-.57-.16-.9-.08c-.51.11-.89.36-1.13.74s-.45.9-.62 1.55c-.1.42-.16.62-.26 1.04-.1.4-.24004.75-.41004 1.05s-.39.55-.65.74-.57.32-.93.39c-.41.08-.78.05-1.09-.09s-.56-.37-.74-.7-.27-.75-.27-1.25c0-.52.09-.98.28-1.37.18-.39.42-.71.71-.96s.61-.41.94-.49v.42c-.24.06-.47.19-.71.38s-.44.45-.59.77c-.16.32-.24.71-.24 1.18 0 .63.16 1.09.48 1.39s.73.4 1.25.3c.46-.09.81-.29 1.05-.61s.43-.74.57-1.28c.1-.4.15-.6.25004-1 .13-.5.28-.92.45-1.28s.39-.65.65-.87.6-.38 1-.47c.44-.1.82-.07 1.15.09s.58.43.76.8.27.84.27 1.39c0 .49-.07.92-.2 1.29s-.31.69-.53.94c-.22.26-.45.46-.7.61s-.49.25-.72.3c-.02-.17-.02-.26-.02-.43z" fill="#fff"/><path d="m9.81997 111.69c0-.28 0-.41 0-.69 0-.43-.08-.78-.24-1.03-.16-.26-.38-.43-.64-.51-.27-.08-.56-.08-.88.01-.46.13-.86.39-1.18.8-.33.41-.49.91-.49 1.49 0 .3.04.56.13.76.09.21.21.37.35.48.15.11.3.19.47.22s.34.03.5-.01v.42c-.2.05-.41.05-.62.02-.21-.04-.41-.12-.6-.26-.18-.14-.33-.33-.45-.58-.11-.25-.17-.57-.17-.96 0-.48.09-.91.27-1.29.18-.39.42-.71.72-.97s.65-.45 1.02-.55c.39-.11.73-.11 1.01-.02s.5.25.65.46c.15.22.25.44.28.67.01 0 .01 0 .02-.01.02-.32.11003-.65.27003-.98.16-.34.38-.65.67-.92.29-.28.65-.47 1.08-.59.33-.09.63-.11.9-.06s.51.16.71.34.36.41.47.71.17.64.17 1.03c0 .53-.09 1-.27 1.41-.18.42-.41.76-.7 1.03s-.61.45-.95.54c0-.17 0-.25 0-.42.29-.07.54-.23.78-.46.23-.23.42-.52.56-.87s.21-.73.21-1.14c0-.45-.08-.81-.24-1.09s-.38-.47-.67-.57c-.28-.1-.6-.1-.95-.01-.38.1-.7.28-.97.55-.27.26-.48.58-.63.96-.15.37-.22.78-.22 1.21v.79c-.14.04-.22003.05-.37003.09z" fill="#fff"/><path d="m7.64998 102.82c-.17.1-.35.25-.53.45s-.34.44-.46.73c-.13.28-.19.6-.19.95 0 .37.08.67.25.89s.39.37.67.47.6.15.96.15.73-.03 1.12-.1.77002-.15 1.14002-.25c.04-.01.08-.02.11-.03.04-.01.07-.02.11-.03v-.01s0-.01 0-.02c-.33.03-.63-.03-.89002-.16-.26-.14-.47-.34-.62-.61s-.23-.6-.23-1c0-.46.11-.92.33-1.36s.52-.83.90002-1.16c.38-.33.82-.58 1.32-.73.51-.16.97-.18 1.36-.07s.7.33.92.65.33.74.33 1.23c0 .41-.08.79-.24 1.16s-.38.7-.65 1-.59.55-.93.76c-.25.15-.53.3-.84.43s-.66.25-1.05.36c-.43.12-.86002.21-1.29002.28s-.83.09-1.22.08c-.38-.02-.72-.09-1.01-.21s-.53-.31-.7-.57-.25-.6-.25-1.03c0-.34.05-.65.15-.94s.23-.55.39-.78.33-.42.51-.58.35-.27.5-.34c.03.15.03.23.03.39zm5.13002 2.27c.34-.28.6-.61.8-.99s.3-.78.3-1.19-.09-.76-.28-1.02c-.19-.27-.45-.45-.79-.54-.33-.09-.72-.07-1.16.07-.43.13-.81.34-1.14.62-.33.29-.58002.61-.77002.98-.18.37-.27.75-.27 1.14 0 .41.1.75.29 1.02s.45002.45.78002.54.7.08 1.11-.03c.42-.12.8-.32 1.13-.6z" fill="#fff"/><path d="m14.07 91v4.56c-3.15 1.04-4.72002 1.56-7.87002 2.6 0-1.75 0-2.62 0-4.37.15-.05.23-.08.38-.14v3.97c1.3-.43 1.96-.65 3.26-1.09 0-1.54 0-2.31 0-3.85.16-.05.23002-.08.39002-.14v3.85c1.38-.46 2.08-.69 3.46-1.15 0-1.65 0-2.48 0-4.13.15-.03.23-.06.38-.11z" fill="#fff"/><path d="m10.16 87.99c1.57-1.67 2.35-2.52 3.92-4.24v.51c-1.43 1.56-2.15 2.33-3.59 3.85v.03c1.43.44 2.15.67 3.59 1.15v.5c-1.57-.54-2.36-.8-3.93-1.29-1.58002 1.68-2.37002 2.5-3.95002 4.13 0-.2 0-.3 0-.49 1.44-1.49 2.16-2.24 3.6-3.76 0-.01 0-.02 0-.03-1.44-.44-2.16-.66-3.6-1.06 0-.19 0-.28 0-.47 1.58.45 2.37.68 3.96002 1.17z" fill="#fff"/><path d="m6.47998 81.33c.19-.44.46-.82.8-1.15s.75-.6 1.23-.81c.46-.2.87-.28 1.21-.24.35002.04.61002.21.80002.49.18.29.28.69.28 1.23v2.09c1.31-.53 1.96-.79 3.27-1.32v.42c-3.15 1.26-4.72002 1.9-7.87002 3.16 0-.98 0-1.47 0-2.44 0-.51.09-.99.28-1.43zm.61-.4c-.34.49-.5 1.05-.5 1.69v2.03c1.53-.62 2.3-.93 3.84002-1.55 0-.83 0-1.25 0-2.08 0-.43-.08-.76-.23-1-.16-.24-.38002-.38-.66002-.42-.29-.04-.63.03-1.03.2-.61.26-1.08.64-1.42 1.13z" fill="#fff"/></g></svg>