<svg width="77" height="77" viewBox="0 0 77 77" fill="none" xmlns="http://www.w3.org/2000/svg">
<rect x="35" width="7" height="7" fill="white"/>
<rect x="28" y="7" width="7" height="7" fill="white"/>
<rect width="7" height="7" transform="matrix(-1 0 0 1 49 7)" fill="white"/>
<rect x="21" y="14" width="7" height="7" fill="white"/>
<rect width="7" height="7" transform="matrix(-1 0 0 1 56 14)" fill="white"/>
<rect x="14" y="21" width="7" height="7" fill="white"/>
<rect width="7" height="7" transform="matrix(-1 0 0 1 63 21)" fill="white"/>
<rect x="7" y="28" width="7" height="7" fill="white"/>
<rect width="7" height="7" transform="matrix(-1 0 0 1 70 28)" fill="white"/>
<rect y="35" width="7" height="7" fill="white"/>
<rect width="7" height="7" transform="matrix(-1 0 0 1 77 35)" fill="white"/>
<rect y="42" width="7" height="7" fill="white"/>
<rect width="7" height="7" transform="matrix(-1 0 0 1 77 42)" fill="white"/>
<rect y="49" width="7" height="7" fill="white"/>
<rect width="7" height="7" transform="matrix(-1 0 0 1 77 49)" fill="white"/>
<rect y="56" width="7" height="7" fill="white"/>
<rect width="7" height="7" transform="matrix(-1 0 0 1 77 56)" fill="white"/>
<rect y="63" width="7" height="7" fill="white"/>
<rect x="7" y="70" width="7" height="7" fill="white"/>
<rect x="21" y="70" width="7" height="7" fill="white"/>
<rect x="35" y="70" width="7" height="7" fill="white"/>
<rect x="14" y="70" width="7" height="7" fill="white"/>
<rect x="28" y="70" width="7" height="7" fill="white"/>
<rect x="49" y="70" width="7" height="7" fill="white"/>
<rect x="56" y="70" width="7" height="7" fill="white"/>
<rect x="63" y="70" width="7" height="7" fill="white"/>
<rect x="70" y="63" width="7" height="7" fill="white"/>
<rect x="42" y="70" width="7" height="7" fill="white"/>
</svg>
