<svg fill="none" height="295" viewBox="0 0 196 295" width="196" xmlns="http://www.w3.org/2000/svg" xmlns:xlink="http://www.w3.org/1999/xlink"><clipPath id="a"><path d="m0 0h195.04v294.92h-195.04z"/></clipPath><g clip-path="url(#a)"><path d="m193.29 60.16c-.07-4.19-3.49-7.56-7.68-7.56h-38.81l-.33 7.35h2.65c1.07 0 1.95.87 1.95 1.95v9.88c0 1.07-.87 1.95-1.95 1.95h-3.28l-4.94 108.87 37.92 1.12c8.98.27 16.36-7.02 16.22-16zm-24.66 11.84c0 1.07-.87 1.95-1.95 1.95h-3.89c-1.07 0-1.95-.87-1.95-1.95v-9.88c0-1.07.87-1.95 1.95-1.95h3.89c1.07 0 1.95.87 1.95 1.95zm17.38.15c0 .87-.7 1.57-1.57 1.57h-4.86c-.87 0-1.58-.71-1.57-1.58.02-2.5.05-7.32.03-9.81-.01-.87.7-1.58 1.57-1.58h4.83c.87 0 1.57.7 1.57 1.57z" fill="#3c1c09"/><path d="m148.22 55.36v-11.25h-145.91v76.1c42.58-49.49 124.68-62.31 145.91-64.85z" fill="#8a1e74"/><path d="m2.31 212.16v69.06h145.91v-121.53c-87.93 10.31-127.84 33.12-145.91 52.47z" fill="#00a634"/><path d="m2.31 185.09v27.07c18.07-19.35 57.98-42.16 145.91-52.47v-27.07c-87.93 10.31-127.84 33.12-145.91 52.47z" fill="#f0e9e8"/><path d="m2.31 120.21v27.07 37.81c18.07-19.35 57.98-42.16 145.91-52.47v-50.19-27.07c-21.23 2.54-103.33 15.36-145.91 64.85z" fill="#1a1713"/><path d="m.5 286.97c1.44 1.21 3.91 3.91 23.8 6.04s80.27 3.2 101.94-.71 22.38-5.68 24.15-7.81v-16.34h-2.27s6.6 10.39-74.27 10.43c-72.52.04-71.55-7.76-71.55-9.24-.94 0-1.75 0-1.75 0s-.05 16.23-.05 17.63z" fill="#0e0f0c"/><path d="m110.94 278.87c-4.63.19-16.17 1.09-33.13.91" opacity=".5" stroke="#fff" stroke-linecap="round" stroke-linejoin="round" stroke-miterlimit="10"/><path d="m1.64999 270.77s.88 5.86 25.45001 7.02" opacity=".5" stroke="#fff" stroke-linecap="round" stroke-linejoin="round" stroke-miterlimit="10"/><path d="m2.71999 46.09v221.49" opacity=".4" stroke="#fff" stroke-linecap="round" stroke-linejoin="round" stroke-miterlimit="10"/><path d="m147.72 46.09v214.37" opacity=".4" stroke="#fff" stroke-linecap="round" stroke-linejoin="round" stroke-miterlimit="10"/><path d="m150.82 46.43h-150.82000366v-13.85c0-1.53-.01999994-2.6 2.78000366-2.78 42.4-7.97 145.26 0 145.26 0 1.53 0 2.78 1.24 2.78 2.78z" fill="#0e0e0c"/><path d="m40.78 30.5v-28.19002c0-.64.48-1.17 1.11-1.23 5.39-.500001 29.93-2.4 63.57.43.64.05 1.14.59 1.14 1.23v27.34002c0 .01-65.82-.64-65.82.42z" fill="#100f0d"/><path d="m48.94 1.51s18.69-1.370002 49.28.46" opacity=".5" stroke="#969696" stroke-linecap="round" stroke-linejoin="round" stroke-miterlimit="10"/><path d="m26.94 28.14c4.63-.19 16.17-1.09 33.13-.91" opacity=".5" stroke="#969696" stroke-linecap="round" stroke-linejoin="round" stroke-miterlimit="10"/><path d="m124.13 29.12c-4.28-.24-11.06-.92-21.59-.83" opacity=".5" stroke="#969696" stroke-linecap="round" stroke-linejoin="round" stroke-miterlimit="10"/><path d="m52.2751 185.664h-2.75v2.75h2.75zm6.0754 0h2.75v-2.75h-2.75zm0 4.541v2.75h2.75v-2.75zm-6.0754 0v-2.75h-2.75v2.75zm0 10.166v2.75h2.75v-2.75zm-5.5943 0h-2.75v2.75h2.75zm0-10.166h2.75v-2.75h-2.75zm-19.9407 0h-2.75v2.75h2.75zm0-3.278-2.3098-1.493-.4402.682v.811zm19.6099-30.347v-2.75h-1.4972l-.8126 1.257zm5.9251 0h2.75v-2.75h-2.75zm-19.219 29.084-2.3168-1.482-2.7059 4.232h5.0227zm13.6247 0v2.75h2.75v-2.75zm0-21.475h2.75l-5.1596-1.325zm-.6617 1.203 2.3168 1.482.049-.077.0438-.08zm6.256 23.022h6.0754v-5.5h-6.0754zm3.3254-2.75v4.541h5.5v-4.541zm2.75 1.791h-6.0754v5.5h6.0754zm-8.8254 2.75v10.166h5.5v-10.166zm2.75 7.416h-5.5943v5.5h5.5943zm-2.8443 2.75v-10.166h-5.5v10.166zm-2.75-12.916h-19.9407v5.5h19.9407zm-17.1907 2.75v-3.278h-5.5v3.278zm-.4403-1.785 19.6099-30.348-4.6195-2.985-19.6099 30.347zm17.3002-29.09h5.9251v-5.5h-5.9251zm3.1751-2.75v29.084h5.5v-29.084zm-16.469 31.834h13.6247v-5.5h-13.6247zm16.3747-2.75v-21.475h-5.5v21.475zm-5.1596-22.8-.6617 1.203 4.8192 2.65.6617-1.203zm-.5689 1.047-12.963 20.271 4.6336 2.963 12.963-20.271zm22.9794 32.43-2.229 1.611.005.006zm-3.4889-13.895h-2.75v.017l.0003.018zm24.2117-21.926-2.2158 1.629.0052.007zm3.4287 13.955h2.75v-.013l-.0001-.013zm-7.5492-10.677-2.3466 1.434.006.01zm-14.527 9.865-2.7499-.025-.0001.013v.012zm2.0452 19.4-2.3562 1.418.0074.012.0075.012zm12.3615.18-2.3246-1.469-.005.008-.0049.008zm2.1053-10.046 2.7498.037.0002-.018v-.019zm2.8142-1.503c0 6.298-1.0931 10.461-2.8387 12.946l4.5004 3.161c2.7058-3.851 3.8383-9.373 3.8383-16.107zm-2.8387 12.946c-1.5937 2.268-4.1249 3.583-8.1864 3.583v5.5c5.4027 0 9.8292-1.854 12.6868-5.922zm-8.1864 3.583c-4.013 0-6.5417-1.285-8.1523-3.5l-4.4481 3.235c2.8808 3.961 7.2697 5.765 12.6004 5.765zm-8.1474-3.493c-1.7682-2.447-2.8912-6.416-2.9681-12.32l-5.4995.071c.0835 6.407 1.2864 11.702 4.0096 15.471zm-2.9679-12.284v-7.429h-5.5v7.429zm0-7.429c0-6.214 1.0918-10.311 2.8292-12.753l-4.4813-3.188c-2.714 3.814-3.8479 9.282-3.8479 15.941zm2.8292-12.753c1.5858-2.228 4.126-3.536 8.226-3.536v-5.5c-5.4042 0-9.8418 1.821-12.7073 5.848zm8.226-3.536c4.0842 0 6.614 1.276 8.1907 3.421l4.4315-3.258c-2.8746-3.91-7.2824-5.663-12.6222-5.663zm8.1959 3.428c1.7159 2.318 2.8314 6.272 2.8894 12.346l5.4998-.053c-.0623-6.518-1.2326-11.869-3.9681-15.565zm2.8893 12.319v7.219h5.5v-7.219zm-.0642-.391c0-4.846-.658-8.914-2.3945-11.73l-4.6811 2.888c.9103 1.476 1.5756 4.265 1.5756 8.842zm-2.3885-11.72c-1.8955-3.102-4.9552-4.564-8.6325-4.564v5.5c2.0573 0 3.1883.703 3.9395 1.932zm-8.6325-4.564c-3.6544 0-6.6993 1.451-8.5762 4.54l4.7007 2.856c.7297-1.202 1.8354-1.896 3.8755-1.896zm-8.5762 4.54c-1.6903 2.783-2.3731 6.683-2.4147 11.298l5.4998.05c.0386-4.288.6993-6.984 1.6156-8.492zm-2.4148 11.323v8.903h5.5v-8.903zm0 8.903c0 4.891.6859 9.001 2.439 11.915l4.7125-2.836c-.9739-1.619-1.6515-4.506-1.6515-9.079zm2.4539 11.939c1.9176 3.113 4.9211 4.676 8.5972 4.676v-5.5c-1.8981 0-3.0651-.682-3.9145-2.061zm8.5972 4.676c3.5865 0 6.5589-1.463 8.4401-4.484l-4.669-2.907c-.7656 1.229-1.8635 1.891-3.7711 1.891zm8.4302-4.469c1.757-2.779 2.4684-6.755 2.5305-11.478l-5.4995-.073c-.0582 4.421-.7504 7.142-1.6802 8.613zm2.5307-11.515v-9.113h-5.5v9.113zm13.251 13.144-2.2292 1.611.005.006zm-3.4891-13.895h-2.75v.017l.0002.018zm24.2121-21.926-2.216 1.629.005.007zm3.428 13.955h2.75v-.013-.013zm-7.549-10.677-2.347 1.434.006.01zm-14.527 9.865-2.75-.025v.013.012zm2.045 19.4-2.356 1.418.007.012.008.012zm12.362.18-2.325-1.469-.005.008-.005.008zm2.105-10.046 2.75.037v-.018-.019zm2.814-1.503c0 6.298-1.093 10.461-2.838 12.946l4.5 3.161c2.706-3.851 3.838-9.373 3.838-16.107zm-2.838 12.946c-1.594 2.268-4.125 3.583-8.187 3.583v5.5c5.403 0 9.829-1.854 12.687-5.922zm-8.187 3.583c-4.013 0-6.542-1.285-8.152-3.5l-4.4482 3.235c2.8812 3.961 7.2692 5.765 12.6002 5.765zm-8.147-3.493c-1.768-2.447-2.891-6.416-2.968-12.32l-5.4999.071c.0835 6.407 1.2865 11.702 4.0097 15.471zm-2.968-12.284v-7.429h-5.5001v7.429zm0-7.429c0-6.214 1.092-10.311 2.829-12.753l-4.4813-3.188c-2.7139 3.814-3.8478 9.282-3.8478 15.941zm2.829-12.753c1.586-2.228 4.126-3.536 8.226-3.536v-5.5c-5.404 0-9.842 1.821-12.7073 5.848zm8.226-3.536c4.084 0 6.614 1.276 8.191 3.421l4.431-3.258c-2.874-3.91-7.282-5.663-12.622-5.663zm8.196 3.428c1.716 2.318 2.831 6.272 2.889 12.346l5.5-.053c-.062-6.518-1.232-11.869-3.968-15.565zm2.889 12.319v7.219h5.5v-7.219zm-.064-.391c0-4.846-.658-8.914-2.394-11.73l-4.682 2.888c.911 1.476 1.576 4.265 1.576 8.842zm-2.388-11.72c-1.896-3.102-4.956-4.564-8.633-4.564v5.5c2.057 0 3.188.703 3.94 1.932zm-8.633-4.564c-3.654 0-6.699 1.451-8.576 4.54l4.701 2.856c.729-1.202 1.835-1.896 3.875-1.896zm-8.576 4.54c-1.69 2.783-2.373 6.683-2.415 11.298l5.5.05c.039-4.288.699-6.984 1.616-8.492zm-2.415 11.323v8.903h5.5v-8.903zm0 8.903c0 4.891.686 9.001 2.439 11.915l4.713-2.836c-.974-1.619-1.652-4.506-1.652-9.079zm2.454 11.939c1.918 3.113 4.921 4.676 8.597 4.676v-5.5c-1.898 0-3.065-.682-3.914-2.061zm8.597 4.676c3.587 0 6.559-1.463 8.44-4.484l-4.669-2.907c-.765 1.229-1.863 1.891-3.771 1.891zm8.43-4.469c1.757-2.779 2.469-6.755 2.531-11.478l-5.5-.073c-.058 4.421-.75 7.142-1.68 8.613zm2.531-11.515v-9.113h-5.5v9.113z" fill="#f0e9e8"/><path d="m52.2751 185.664h6.0754v4.541h-6.0754v10.166h-5.5943v-10.166h-19.9407v-3.278l19.6099-30.347h5.9251zm-19.219 0h13.6247v-21.475l-.6617 1.203z" fill="#85236f"/><path d="m90.8332 181.694c0 6.516-1.1128 11.359-3.3385 14.527s-5.7045 4.752-10.4366 4.752c-4.6719 0-8.1307-1.544-10.3764-4.632-2.2457-3.108-3.4087-7.74-3.4889-13.895v-7.429c0-6.437 1.1129-11.219 3.3385-14.347 2.2257-3.128 5.7146-4.692 10.4667-4.692 4.712 0 8.1808 1.514 10.4065 4.542 2.2256 3.007 3.3686 7.659 3.4287 13.955zm-5.5642-7.61c0-4.712-.6616-8.14-1.985-10.286-1.3234-2.165-3.4187-3.248-6.286-3.248-2.8473 0-4.9225 1.073-6.2259 3.218-1.3033 2.146-1.975 5.444-2.0151 9.895v8.903c0 4.732.6817 8.231 2.0452 10.497 1.3835 2.245 3.4688 3.368 6.2559 3.368 2.747 0 4.7822-1.063 6.1056-3.188 1.3434-2.125 2.0452-5.474 2.1053-10.045z" fill="#85236f"/><path d="m125.421 181.694c0 6.516-1.113 11.359-3.338 14.527-2.226 3.168-5.705 4.752-10.437 4.752-4.672 0-8.131-1.544-10.376-4.632-2.2459-3.108-3.4089-7.74-3.4891-13.895v-7.429c0-6.437 1.1128-11.219 3.3381-14.347 2.226-3.128 5.715-4.692 10.467-4.692 4.712 0 8.181 1.514 10.407 4.542 2.225 3.007 3.368 7.659 3.428 13.955zm-5.564-7.61c0-4.712-.662-8.14-1.985-10.286-1.323-2.165-3.419-3.248-6.286-3.248-2.847 0-4.922 1.073-6.226 3.218-1.303 2.146-1.975 5.444-2.015 9.895v8.903c0 4.732.682 8.231 2.045 10.497 1.384 2.245 3.469 3.368 6.256 3.368 2.747 0 4.782-1.063 6.106-3.188 1.343-2.125 2.045-5.474 2.105-10.045z" fill="#85236f"/><g fill="#fff"><path d="m96.4815 216.917v10.1c0 .662.3181.993.9923 1.031h3.3332v1.132c0 .127-.064.216-.204.216-.038 0-5.4063 0-5.4063 0-1.6537 0-1.8954-.928-1.8954-1.755v-10.037c0-.484.1653-.7.7251-.687z"/><path d="m90.2736 216.917v11.818c0 .521-.2162.661-.6615.661h-2.5442v-11.83c0-.382.1654-.649.7251-.649z"/><path d="m37.392 218.622c0-.942 0-1.718 1.552-1.718h6.8821v1.196c0 .076-.0382.165-.1654.165h-4.1089c-.5597 0-.8269.268-.8269.827v3.168h4.834v1.272c0 .102-.0763.165-.1781.165h-4.6559v5.038c-.0254.483-.2671.661-.7887.661h-2.5442z"/><path d="m50.7746 216.917v9.515c0 .802.1272 1.387.6869 1.718.7633.445 2.0736.445 2.8623.025.5215-.305.7505-.789.7505-1.73v-8.892c0-.407.14-.623.6997-.623h2.4806v9.235c0 2.137-1.3484 3.028-2.5442 3.346-1.5902.42-4.0072.445-5.5083-.026-1.7936-.521-2.6205-1.59-2.6205-3.333v-8.612c0-.407.1399-.623.6233-.623z"/><path d="m50.7746 216.917v9.515c0 .802.1272 1.387.6869 1.718.7633.445 2.0736.445 2.8623.025.5215-.305.7505-.789.7505-1.73v-8.892c0-.407.14-.623.6997-.623h2.4806v9.235c0 2.137-1.3484 3.028-2.5442 3.346-1.5902.42-4.0072.445-5.5083-.026-1.7936-.521-2.6205-1.59-2.6205-3.333v-8.612c0-.407.1399-.623.6233-.623z"/><path d="m111.289 216.917c-.649 0-.992.28-1.132.852l-2.061 8.612h-.038l-2.112-9.451h-2.862c-.56 0-.725.28-.725.725v11.754h1.208c.178 0 .267-.102.267-.305v-9.859h.204l2.595 10.164h1.717c.624 0 .865-.267 1.031-.903l2.34-9.261h.179v10.164h2.277c.547 0 .801-.216.801-.763v-11.716h-3.689"/><path d="m73.4563 223.685h-3.2057v5.711h2.5442c.4453 0 .6615-.14.6615-.661 0-.013 0-2.443 0-5.05z"/><path d="m73.2782 221.242c.1018-.076.1781-.165.1781-.343 0-1.247 0-3.995 0-3.995h-2.4806c-.5597 0-.7251.267-.7251.662v6.03z"/><path d="m62.3126 228.404c1.3866-.203 1.8573-1.03 1.8573-2.239v-8.587c0-.508.2799-.661.6233-.661h2.557v8.103c0 1.998-.4071 3.002-1.5902 3.855-.6233.445-1.6919.941-4.0071.941-1.3484 0-1.9336-.076-2.0227-.102-.1272-.025-.1653-.076-.1653-.178 0 0 0-.801 0-1.043.547.013 1.8191.051 2.7477-.089z"/><path d="m78.3031 216.917c-1.552 0-1.552.763-1.552 1.717v3.206c0 .076-.0254.102-.0636.14l-2.1753 1.717h2.2389v5.712h2.5442c.5216 0 .7633-.178.7887-.661v-5.038h4.6559c.1273 0 .1781-.064.1781-.165v-1.272h-4.834v-3.168c0-.56.2799-.827.8269-.827h4.1089c.1145 0 .1654-.076.1654-.165v-1.196z"/><path d="m42.8678 238.729h-4.1996v4.419h-1.3196v-10.007h6.1996v1.086h-4.88v3.423h4.1996z"/><path d="m52.1742 233.141v6.805c-.0046.943-.3025 1.716-.8936 2.316-.5865.6-1.3838.937-2.3919 1.01l-.3505.014c-1.0951 0-1.968-.296-2.6187-.887s-.9806-1.404-.9897-2.44v-6.818h1.3059v6.777c0 .724.1993 1.288.5979 1.691.3987.398.9669.598 1.7046.598.7469 0 1.3174-.2 1.7114-.598.3987-.399.598-.96.598-1.684v-6.784z"/><path d="m58.4494 233.141h1.3266v7.086c0 .958-.2887 1.707-.8661 2.248-.5727.541-1.338.811-2.2956.811-.9944 0-1.7687-.254-2.3232-.763-.5544-.509-.8316-1.221-.8316-2.138h1.3196c0 .573.1558 1.02.4674 1.341.3162.32.7721.481 1.3678.481.5452 0 .9851-.172 1.3196-.516.3391-.343.5109-.824.5155-1.443z"/><path d="m63.4394 243.148h-1.3197v-10.007h1.3197z"/><path d="m73.22 239.973c-.1237 1.058-.5155 1.876-1.1753 2.454-.6553.573-1.5282.859-2.6187.859-1.1822 0-2.1307-.424-2.8455-1.272-.7103-.847-1.0654-1.981-1.0654-3.402v-.962c0-.93.165-1.748.4949-2.454.3345-.706.8065-1.246 1.4159-1.622.6094-.38 1.3151-.57 2.1169-.57 1.0631 0 1.9154.297 2.5569.893.6415.591 1.0149 1.411 1.1203 2.461h-1.3265c-.1146-.798-.3643-1.375-.7492-1.732-.3803-.358-.9141-.536-1.6015-.536-.8431 0-1.5052.311-1.9863.934-.4766.623-.7148 1.51-.7148 2.66v.969c0 1.086.2268 1.95.6804 2.592.4536.641 1.0883.962 1.9039.962.7331 0 1.2945-.165 1.6839-.495.3941-.335.6553-.914.7836-1.739z"/><path d="m82.7257 238.468c0 .98-.1649 1.837-.4949 2.57-.3299.729-.7973 1.286-1.4021 1.671-.6048.384-1.3105.577-2.117.577-.7881 0-1.4869-.193-2.0963-.577-.6094-.39-1.0837-.942-1.4228-1.657-.3345-.719-.5063-1.551-.5154-2.495v-.722c0-.962.1672-1.812.5017-2.55.3345-.737.8065-1.301 1.4159-1.69.614-.394 1.3151-.591 2.1032-.591.8019 0 1.5075.194 2.117.584.614.385 1.0859.946 1.4158 1.684.33.733.4949 1.587.4949 2.563zm-1.3128-.646c0-1.187-.2382-2.097-.7148-2.729-.4765-.637-1.1432-.955-2.0001-.955-.834 0-1.4915.318-1.9726.955-.4766.632-.7217 1.512-.7355 2.639v.736c0 1.15.2406 2.055.7217 2.715.4857.655 1.1524.983 2.0001.983.8523 0 1.5122-.31 1.9795-.928.4674-.623.708-1.515.7217-2.674z"/><path d="m86.0317 242.069h4.7426v1.079h-6.0691v-10.007h1.3265z"/><path d="m99.5239 238.468c0 .98-.1649 1.837-.4949 2.57-.3299.729-.7973 1.286-1.4021 1.671-.6048.384-1.3105.577-2.117.577-.7881 0-1.4869-.193-2.0963-.577-.6094-.39-1.0837-.942-1.4228-1.657-.3345-.719-.5063-1.551-.5154-2.495v-.722c0-.962.1672-1.812.5017-2.55.3345-.737.8065-1.301 1.4159-1.69.614-.394 1.3151-.591 2.1032-.591.8019 0 1.5075.194 2.117.584.614.385 1.0859.946 1.4158 1.684.33.733.4949 1.587.4949 2.563zm-1.3128-.646c0-1.187-.2382-2.097-.7148-2.729-.4765-.637-1.1432-.955-2.0001-.955-.834 0-1.4915.318-1.9726.955-.4766.632-.7217 1.512-.7355 2.639v.736c0 1.15.2406 2.055.7217 2.715.4857.655 1.1524.983 2.0001.983.8523 0 1.5122-.31 1.9795-.928.4674-.623.708-1.515.7217-2.674z"/><path d="m105.174 239.1h-2.351v4.048h-1.326v-10.007h3.312c1.128 0 1.994.257 2.599.77.609.513.914 1.26.914 2.24 0 .624-.17 1.167-.509 1.629-.334.463-.802.809-1.402 1.038l2.351 4.248v.082h-1.416zm-2.351-1.079h2.028c.655 0 1.175-.17 1.56-.509.389-.339.584-.792.584-1.361 0-.618-.185-1.092-.557-1.422-.366-.33-.898-.497-1.594-.502h-2.021z"/><path d="m131.42 267.44-.31.09c-5.07 1.53-10.33 2.37-15.62 2.49v-219.39h15.93z" opacity=".1"/><path d="m95.68 271.07-.12 1.39c-1.64 1.55-3.19 1-4.9 1.13l-.14-5.81v-217.15h5.17v220.44z" opacity=".1"/><path d="m33.86 251.53c-1.15-.05-1.72-.08-2.87-.13v1.82c.87.04 1.3.06 2.17.1v.56c-.87-.04-1.3-.06-2.17-.1v2.69c-.27-.01-.4-.02-.66-.03 0-2.25 0-3.37 0-5.62 1.41.07 2.12.1 3.53.16z"/><path d="m35.63 256.67c-.27-.01-.4-.02-.66-.03 0-2.25 0-3.37 0-5.62.27.01.4.02.66.03z"/><path d="m37.9 256.2c1.11.04 1.67.07 2.78.11v.56c-1.38-.05-2.07-.08-3.45-.13 0-2.25 0-3.37 0-5.62.27.01.4.02.66.03.01 2.01.01 3.02.01 5.05z"/><path d="m47.19 257.08c-.25-.01-.38-.01-.63-.02 0-1.32 0-1.98 0-3.3 0-.64.02-1.17.02-1.78-.05 0-.08 0-.13 0-.16.59-.3 1.09-.5 1.72-.42 1.33-.64 1.99-1.06 3.31-.34-.01-.51-.02-.85-.03-.41-1.35-.62-2.03-1.04-3.38-.19-.61-.33-1.13-.51-1.76-.05 0-.08 0-.13 0-.01.61.02 1.15.02 1.79v3.3c-.24-.01-.36-.01-.59-.02 0-2.25 0-3.37 0-5.62.45.02.67.02 1.11.04.4 1.34.6 2.01 1.01 3.34.17.56.34 1.15.51 1.73h.13c.2-.58.34-1.1.53-1.68.41-1.32.61-1.98 1.02-3.29.44.01.66.02 1.1.03-.01 2.25-.01 3.38-.01 5.62z"/><path d="m54.51 252.21c-1.15-.03-1.72-.04-2.87-.07v1.82c.87.02 1.3.03 2.17.05v.56c-.87-.02-1.3-.03-2.17-.05v2.69c-.27-.01-.4-.01-.66-.02 0-2.25 0-3.37 0-5.62 1.41.04 2.12.05 3.53.09z"/><path d="m59.85 254.57c0 1.85-.98 2.91-2.32 2.88-1.35-.03-2.32-1.11-2.32-2.96s.98-2.9 2.32-2.87c1.35.03 2.32 1.09 2.32 2.95zm-3.94-.07c0 1.55.66 2.38 1.62 2.4s1.62-.79 1.62-2.34c0-1.56-.66-2.38-1.62-2.4-.96-.01-1.62.78-1.62 2.34z"/><path d="m63.02 251.81c1.33.02 1.93.57 1.93 1.5 0 .69-.4 1.23-1.19 1.4.54 1.1.81 1.65 1.34 2.75-.29 0-.44-.01-.73-.01-.49-1.06-.74-1.58-1.24-2.64-.54-.01-.81-.01-1.36-.02v2.62c-.26 0-.39-.01-.65-.01 0-2.25 0-3.37 0-5.62.76.01 1.14.02 1.9.03zm-1.25 2.46c.46.01.7.01 1.16.02.94.01 1.34-.35 1.34-.98 0-.61-.35-.95-1.29-.96-.48-.01-.72-.01-1.21-.02z"/><path d="m71.82 253.58c-.19-.83-.66-1.24-1.37-1.24-.95-.01-1.66.8-1.66 2.35 0 1.54.71 2.37 1.66 2.38.75 0 1.23-.37 1.43-1.25.25.09.38.13.63.22-.32 1.11-1.04 1.59-2.07 1.58-1.35-.01-2.35-1.08-2.35-2.92 0-1.85 1.01-2.91 2.35-2.9 1.06.01 1.78.61 2.03 1.62-.25.05-.38.09-.65.16z"/><path d="m77.96 254.71c0 1.85-.98 2.92-2.32 2.92-1.35 0-2.32-1.07-2.32-2.91 0-1.85.98-2.92 2.32-2.92 1.35.01 2.32 1.06 2.32 2.91zm-3.94.01c0 1.55.66 2.37 1.62 2.37s1.62-.82 1.62-2.36c0-1.56-.66-2.36-1.62-2.37s-1.62.8-1.62 2.36z"/><path d="m79.9 256.96c1.11 0 1.67-.01 2.79-.01v.56c-1.38.01-2.07.01-3.45.02 0-2.25 0-3.37 0-5.62h.66z"/><path d="m88.02 254.65c0 1.85-.98 2.93-2.32 2.95-1.35.01-2.32-1.04-2.32-2.89s.98-2.93 2.32-2.94c1.35-.02 2.32 1.02 2.32 2.88zm-3.93.04c0 1.55.66 2.36 1.62 2.35s1.62-.83 1.62-2.38c0-1.56-.66-2.36-1.62-2.35s-1.62.83-1.62 2.38z"/><path d="m91.2 251.8c1.33-.02 1.93.51 1.93 1.44 0 .69-.4 1.24-1.19 1.44.54 1.08.81 1.63 1.34 2.71-.29 0-.44.01-.73.01-.49-1.04-.74-1.56-1.24-2.6-.54.01-.81.01-1.36.02v2.62c-.26 0-.39.01-.65.01 0-2.25 0-3.37 0-5.62.76-.02 1.14-.02 1.9-.03zm-1.25 2.49c.46-.01.7-.01 1.16-.02.94-.01 1.34-.39 1.34-1.02 0-.61-.35-.94-1.29-.93-.48.01-.72.01-1.21.02z"/><path d="m98.47 251.66c1.31-.03 1.95.52 1.95 1.52 0 .98-.69 1.62-2 1.65-.46.01-.7.02-1.16.02v2.46c-.26.01-.39.01-.66.01 0-2.25 0-3.37 0-5.62.75-.01 1.13-.02 1.87-.04zm-1.21 2.68c.45-.01.68-.01 1.13-.02.92-.02 1.34-.43 1.34-1.11 0-.67-.38-1.03-1.3-1.01-.47.01-.71.02-1.18.03.01.84.01 1.26.01 2.11z"/><path d="m103.55 251.54c1.33-.04 1.93.49 1.93 1.42 0 .69-.4 1.25-1.19 1.45.54 1.08.81 1.62 1.34 2.69-.29.01-.44.01-.73.02-.49-1.04-.74-1.55-1.24-2.59-.54.01-.81.02-1.36.04v2.62c-.26.01-.39.01-.65.02 0-2.25 0-3.37 0-5.62.77-.02 1.15-.03 1.9-.05zm-1.24 2.51c.46-.01.7-.02 1.16-.03.94-.03 1.33-.4 1.33-1.04 0-.61-.35-.94-1.29-.91-.48.01-.72.02-1.21.03.01.78.01 1.17.01 1.95z"/><path d="m107.45 257.05c-.27.01-.4.01-.66.02 0-2.25 0-3.37 0-5.62.27-.01.4-.01.66-.02z"/><path d="m113.16 256.85c-.34.01-.51.02-.85.03-.7-1.34-1.06-2-1.76-3.34-.31-.6-.51-1.03-.8-1.61-.05 0-.07 0-.11 0 .01.63.03 1.18.03 1.81v3.23c-.25.01-.37.01-.62.02 0-2.25 0-3.37 0-5.62.41-.01.62-.02 1.03-.03.64 1.24.97 1.86 1.61 3.09.33.62.53 1.1.79 1.66h.12c-.02-.6-.06-1.18-.06-1.84 0-1.2 0-1.79 0-2.99.25-.01.37-.01.62-.02z"/><path d="m118.45 251.58c-.7.03-1.06.04-1.76.07v5.06c-.27.01-.4.02-.67.03 0-2.02 0-3.03 0-5.06-.7.03-1.05.04-1.75.07 0-.23 0-.34 0-.56 1.67-.06 2.51-.1 4.18-.17z"/><path d="m122.24 252.28c-.2-.68-.62-.96-1.19-.94-.7.03-1.13.41-1.13.96 0 .59.28.84 1.17 1.02.1.02.15.03.24.06 1.34.28 1.68.75 1.68 1.56 0 .95-.69 1.64-1.94 1.69-1.04.05-1.75-.4-2.03-1.32.26-.1.39-.15.66-.26.18.72.71 1.07 1.36 1.04.88-.04 1.27-.47 1.27-1.04 0-.58-.22-.85-1.26-1.08-.09-.02-.13-.04-.22-.06-1.22-.27-1.59-.72-1.59-1.55 0-.78.61-1.51 1.78-1.56.91-.04 1.57.35 1.87 1.25-.27.09-.4.14-.67.23z"/><path d="m45.4219 104.953c.246.282.4817.525.7072.73.2306.2.4637.366.6995.5.2408.128.4919.223.7532.284.2614.062.5484.092.861.092.3894 0 .7635-.046 1.1222-.138.3639-.097.6841-.241.9609-.43.2818-.19.5047-.423.6687-.7.1691-.277.2537-.597.2537-.961 0-.292-.0795-.553-.2383-.784-.1589-.23-.3715-.448-.638-.653-.2614-.205-.5637-.402-.907-.592-.3383-.19-.6893-.39-1.0531-.6-.4766-.276-.8866-.535-1.2299-.776-.3382-.241-.6175-.487-.8379-.738-.2203-.2562-.3817-.5278-.4842-.8147-.1025-.287-.1538-.615-.1538-.9839 0-.5586.1282-1.0429.3844-1.4528.2613-.41.5995-.7482 1.0146-1.0147.4151-.2716.8789-.4714 1.3913-.5995.5176-.1333 1.0352-.1999 1.5527-.1999.369 0 .7123.0282 1.0301.0846.3177.0512.6149.1383.8916.2613.2767.1179.5355.2716.7764.4612.246.1896.4791.4202.6995.6918l-.884.9071c-.3382-.4766-.7226-.8251-1.153-1.0454-.4305-.2204-.9096-.3306-1.4374-.3306-.1999 0-.41.0154-.6303.0462-.2153.0256-.4279.0717-.638.1383-.2101.0615-.41.1435-.5996.246-.1845.1025-.3485.2255-.4919.369-.1384.1434-.2511.31-.3383.4996-.082.1845-.123.3946-.123.6303 0 .3536.0641.6559.1922.907s.2998.4766.515.6765c.2204.1947.4766.3766.7687.5456.2972.169.6124.346.9455.531.1691.092.3638.197.5842.315.2203.112.4458.241.6764.384s.4561.307.6764.492c.2255.179.4228.384.5919.615.1742.225.3152.479.4228.761s.1614.594.1614.938c0 .589-.1307 1.099-.392 1.529-.2614.431-.6073.787-1.0377 1.069-.4254.282-.9122.492-1.4605.63-.5432.133-1.0992.2-1.668.2-.4561 0-.8686-.036-1.2376-.108-.3638-.066-.7046-.169-1.0223-.307-.3126-.144-.6047-.323-.8763-.538s-.5381-.469-.7994-.761z"/><path d="m57.3824 95.4367-1.422 8.1783c-.0257.144-.0461.282-.0615.415-.0154.129-.0205.254-.0154.377 0 .692.2152 1.215.6457 1.568.4356.349 1.1274.523 2.0754.523.6098 0 1.1325-.059 1.5681-.177.4407-.123.8097-.305 1.1069-.546.2972-.246.5304-.548.6995-.907.1742-.364.3049-.786.392-1.268l1.422-8.1633h1.2991l-1.4067 8.0783c-.1178.672-.3049 1.266-.5611 1.784-.2562.512-.5996.943-1.03 1.291-.4305.349-.9557.612-1.5758.792-.6201.179-1.3503.269-2.1907.269-1.3016 0-2.2574-.238-2.8672-.715-.6047-.482-.907-1.22-.907-2.214 0-.358.0384-.753.1153-1.184l1.4067-8.1013z"/><path d="m67.6672 101.425 1.276-.008c.5227-.005 1.0096-.077 1.4605-.215.4561-.144.8507-.349 1.1838-.615.3331-.272.5944-.6049.784-.9995.1896-.3997.2844-.8558.2844-1.3682 0-.2768-.0435-.5253-.1306-.7456-.0872-.2204-.2332-.4074-.4382-.5612-.205-.1537-.4766-.2716-.8148-.3536-.3331-.082-.7482-.123-1.2452-.123h-1.4913zm-.1691.991-.8762 5.066h-1.3068l2.0908-12.0453h3.2669c.5841 0 1.0863.064 1.5065.1921.4203.1282.7662.3126 1.0378.5535.2716.2357.4714.5201.5995.8532s.1922.7021.1922 1.1069c0 .246-.0231.5073-.0692.784-.0307.1794-.0922.3921-.1845.638-.0922.2409-.2255.4916-.3997.7536-.1691.256-.3843.51-.6457.761-.2613.251-.579.476-.9531.676-.369.195-.7969.354-1.2837.477s-1.0428.184-1.668.184z"/><path d="m82.5718 96.4974h-5.1271l-.7148 4.1046h4.0893l-.1768 1.007h-4.0893l-.8379 4.812h5.3577l-.1768 1.061h-6.6644l2.0908-12.0453h6.4338z"/><path d="m85.1238 101.355h1.2452c.5381 0 1.0352-.069 1.4913-.207.456-.138.8481-.341 1.176-.607.3331-.267.5919-.5948.7764-.9842.1845-.3946.2767-.8481.2767-1.3606 0-.2767-.0461-.5201-.1384-.7302-.0871-.2153-.2357-.3946-.4458-.5381-.2101-.1486-.4868-.2613-.8302-.3382-.3382-.0769-.7558-.1153-1.2529-.1153h-1.4605zm-1.0685 6.127h-1.3067l2.0908-12.0453h3.2668c.5842 0 1.0864.064 1.5066.1921.4202.123.7661.2998 1.0377.5304s.4715.5099.5996.8379c.1281.3228.1922.6841.1922 1.0838 0 .2562-.0231.5227-.0692.7994-.0359.2101-.1153.4638-.2383.761-.123.2921-.3049.5897-.5458.8917-.2357.302-.538.592-.907.869-.369.271-.8225.492-1.3605.661l2.429 5.419h-1.5528l-2.2137-5.166c-.1179.021-.5074.031-1.1684.031h-.8763z"/><path d="m92.0649 107.482 2.0908-12.0453h1.3067l-2.0908 12.0453z"/><path d="m98.4833 102.447h3.5287l-.769-5.5037zm2.4827-7.0103h1.268l1.907 12.0453h-1.445l-.577-4.105h-4.0662l-1.9985 4.105h-1.2991z"/><path d="m21.64 115.58c0-1.12-.02-2.23-.06-3.31s-.09-2.19-.14-3.32c.41.06.82.11 1.24.17.42.05.83.09 1.24.11.2.01.45.02.74.02s.58 0 .88.01.58.01.85.01.5 0 .69.01c.26.01.57.04.94.08s.77.11 1.19.22.83.26 1.24.45.78.46 1.11.8.6.76.8 1.25c.2.5.31 1.1.31 1.82 0 1.12-.24 2.02-.73 2.7-.49.67-1.08 1.19-1.79 1.54s-1.45.58-2.25.67c-.79.09-1.49.12-2.1.09-.39-.02-.75-.05-1.07-.08s-.65-.07-.99-.12v1.4c0 1.12.02 2.23.06 3.32s.09 2.17.14 3.23c-.39-.06-.81-.1-1.25-.13s-.86-.04-1.25-.03c.05-1.05.1-2.12.14-3.21s.06-2.19.06-3.32c0-1.75 0-2.63 0-4.38zm2.09 2.04c.58.17 1.18.28 1.81.31.53.03 1.07 0 1.63-.09s1.08-.28 1.54-.57c.47-.29.85-.7 1.15-1.24s.45-1.24.45-2.11c0-.73-.1-1.33-.31-1.8-.2-.47-.49-.84-.85-1.12-.37-.28-.81-.47-1.34-.6-.53-.12-1.12-.2-1.79-.24-.92-.05-1.38-.08-2.3-.14.01 3.05.01 4.57.01 7.6z"/><path d="m35.83 116.35c0-1.12-.02-2.23-.06-3.31s-.09-2.19-.14-3.31c.49.06.98.11 1.46.16s.96.08 1.46.1c.49.02.98.02 1.45 0 .48-.02.96-.02 1.46 0 .71.03 1.4.12 2.04.28.65.16 1.21.41 1.7.74.48.33.87.76 1.15 1.28s.42 1.16.42 1.93c0 .82-.18 1.51-.55 2.09s-.81 1.04-1.34 1.41c-.53.36-1.09.64-1.7.83-.6.19-1.15.31-1.65.36.2.26.48.63.84 1.11.36.47.76 1 1.2 1.57s.9 1.17 1.38 1.79.94 1.22 1.38 1.79.86 1.09 1.25 1.56.71.83.94 1.08c-.26-.04-.51-.07-.77-.08s-.51-.02-.77-.03c-.24-.01-.48-.02-.74-.03s-.5 0-.74.03c-.25-.37-.64-.92-1.16-1.65s-1.09-1.52-1.72-2.36-1.27-1.68-1.93-2.52-1.26-1.55-1.8-2.13c-.39-.02-.58-.03-.97-.04v1.86c0 1.12.02 2.23.06 3.32s.09 2.17.14 3.22c-.39-.05-.81-.09-1.25-.11s-.86-.02-1.25-.01c.05-1.05.1-2.12.14-3.21s.06-2.19.06-3.32c.01-1.76.01-2.64.01-4.4zm2.09 1.55c.24.06.5.11.78.14s.59.05.93.07c.53.02 1.08-.01 1.65-.11s1.09-.28 1.57-.56.87-.66 1.19-1.15c.31-.49.47-1.12.47-1.88 0-.66-.12-1.22-.37-1.66s-.57-.8-.96-1.07-.82-.46-1.28-.57-.91-.18-1.35-.19c-.6-.02-1.09-.03-1.48-.02s-.72.02-1 .05c-.03.94-.07 1.86-.1 2.78s-.05 1.84-.05 2.76z"/><path d="m51.37 113.6c-.04-1.09-.09-2.18-.14-3.27.77.06 1.53.11 2.29.15.76.05 1.52.08 2.29.1s1.52.02 2.27.01 1.51-.02 2.27-.04c-.05.25-.08.51-.08.76s.03.51.08.77c-.55-.04-1.04-.09-1.49-.13s-.93-.09-1.43-.13-1.05-.09-1.65-.13-1.31-.07-2.15-.09c-.02.54-.04 1.06-.06 1.56-.03.49-.04 1.05-.04 1.68 0 .66 0 1.31.01 1.94s.01 1.11.01 1.43c.75.02 1.42.03 2.02.03s1.14-.01 1.63-.03c.49-.01.95-.03 1.37-.05s.81-.04 1.19-.07c-.05.25-.08.52-.08.79 0 .26.03.51.08.77-.44-.06-.96-.11-1.55-.16s-1.17-.08-1.76-.1-1.14-.04-1.66-.07c-.52-.02-.93-.04-1.24-.05 0 .15 0 .32-.01.5s-.01.4-.01.68v1 1.53c0 .97 0 1.77.01 2.4s.02 1.11.04 1.43c.56.01 1.16.03 1.79.05.65.02 1.28.02 1.9.01s1.21-.03 1.76-.06 1.03-.09 1.44-.16c-.03.12-.06.25-.06.39-.01.14-.01.28-.01.4 0 .27.03.49.08.67-.77-.05-1.53-.08-2.29-.1s-1.53-.03-2.31-.05-1.56-.04-2.32-.06c-.77-.02-1.54-.03-2.32-.01.05-1.09.1-2.17.14-3.25s.06-2.18.06-3.3c0-1.76 0-2.63 0-4.39-.01-1.16-.03-2.26-.07-3.35z"/><path d="m69.4 117.38c1.2 2.29 2.46 4.64 3.77 7.05.17-.32.42-.79.74-1.39s.7-1.3 1.12-2.08c.43-.78.88-1.63 1.37-2.54s.98-1.83 1.48-2.77 1-1.86 1.49-2.76.95-1.75 1.38-2.53h.33c.19 1.63.36 3.21.52 4.73s.33 3.02.5 4.49.34 2.93.51 4.36c.17 1.44.36 2.86.56 4.27-.2-.03-.4-.05-.6-.05s-.4 0-.6 0-.4 0-.6 0-.4.02-.6.05c-.19-2.26-.37-4.46-.56-6.59s-.42-4.3-.69-6.51c-.02 0-.03 0-.05 0-1.17 2.15-2.33 4.28-3.46 6.4s-2.21 4.33-3.23 6.64c-.09 0-.14 0-.23 0-1.02-2.15-2.09-4.31-3.21-6.47s-2.24-4.38-3.36-6.64c-.02 0-.03 0-.05 0-.12 1.05-.25 2.2-.4 3.43s-.28 2.45-.4 3.65-.22 2.33-.31 3.39-.13 1.93-.13 2.62c-.27-.04-.57-.06-.89-.06s-.62.01-.89.04c.22-1.38.45-2.83.69-4.36s.47-3.07.69-4.61c.22-1.55.43-3.07.61-4.57.19-1.5.35-2.94.49-4.3.17 0 .26 0 .43.01 1.19 2.45 2.38 4.81 3.58 7.1z"/><path d="m86.85 113.96c-.04-1.08-.09-2.18-.14-3.31.22.03.43.06.64.08.2.02.41.03.61.03s.41-.02.61-.05.42-.06.64-.1c-.05 1.12-.1 2.23-.14 3.31s-.06 2.18-.06 3.31v4.39c0 1.12.02 2.23.06 3.32s.09 2.16.14 3.22c-.39-.03-.81-.04-1.25-.04-.44.01-.86.03-1.25.07.05-1.06.1-2.13.14-3.22s.06-2.2.06-3.32c0-1.76 0-2.64 0-4.39 0-1.12-.02-2.22-.06-3.3z"/><path d="m107.32 118.49c0-2.42-.01-4.28-.03-5.59s-.06-2.21-.13-2.7c.19.03.37.05.54.07s.34.03.51.02c.22-.01.48-.06.77-.15-.05.6-.1 1.31-.15 2.14s-.09 1.71-.13 2.66c-.03.95-.07 1.92-.1 2.91-.03 1-.06 1.97-.08 2.9-.02 1.14-.19 2.17-.52 3.08s-.8 1.7-1.42 2.35c-.61.65-1.37 1.15-2.26 1.5s-1.92.54-3.08.57c-2.55.07-4.41-.47-5.57-1.6s-1.74-2.95-1.74-5.46c0-.8.02-1.51.06-2.13s.06-1.26.06-1.9c0-1.43-.02-2.7-.05-3.8-.03-1.11-.07-2.04-.1-2.81.2.03.43.06.66.08.24.02.46.03.66.02.19 0 .37-.02.55-.05s.36-.06.55-.1c-.03.38-.07.87-.1 1.47s-.07 1.29-.1 2.06-.06 1.59-.08 2.48-.03 1.81-.03 2.76c0 .58.01 1.18.03 1.8s.08 1.22.18 1.81.27 1.14.5 1.67.56.99.98 1.38c.43.39.96.69 1.61.91.65.21 1.45.31 2.4.28.94-.03 1.72-.19 2.36-.48s1.16-.67 1.57-1.12c.41-.46.73-.98.96-1.56.23-.59.4-1.2.5-1.83s.16-1.26.18-1.9c.03-.64.04-1.21.04-1.74z"/><path d="m119.07 116.43c1.2 2.22 2.45 4.5 3.76 6.84.17-.33.42-.81.74-1.43s.7-1.33 1.12-2.14c.43-.81.88-1.68 1.36-2.61.48-.94.98-1.89 1.48-2.85s1-1.91 1.49-2.84.95-1.8 1.38-2.61c.13-.01.2-.01.33-.02.19 1.62.36 3.19.52 4.7s.33 3 .5 4.46.34 2.91.51 4.33.36 2.84.56 4.24c-.2-.02-.4-.03-.6-.01-.2.01-.4.02-.6.04s-.4.02-.6.04c-.2.01-.4.04-.6.09-.19-2.25-.37-4.44-.56-6.55-.19-2.12-.42-4.27-.69-6.47-.02 0-.03 0-.05 0-1.17 2.21-2.33 4.41-3.46 6.59s-2.21 4.46-3.23 6.82c-.09 0-.14.01-.23.01-1.02-2.09-2.09-4.19-3.2-6.29s-2.23-4.25-3.36-6.45c-.02 0-.03 0-.05 0-.12 1.06-.25 2.21-.4 3.45-.14 1.24-.28 2.46-.4 3.67-.12 1.2-.22 2.34-.31 3.41s-.13 1.94-.13 2.62c-.27-.02-.57-.03-.89-.01s-.62.04-.89.09c.22-1.39.45-2.85.69-4.39s.47-3.09.69-4.65.43-3.09.61-4.61c.19-1.51.35-2.96.48-4.32.17-.01.26-.01.43-.02 1.22 2.35 2.4 4.64 3.6 6.87z"/></g><path d="m54 178h7v6h-7z" fill="#f0e9e8"/><path d="m71 171h12v22h-12z" fill="#f0e9e8"/><path d="m74 193h7v2h-7z" fill="#f0e9e8"/><path d="m108 192h8v3h-8z" fill="#f0e9e8"/><path d="m106 164h12v28h-12z" fill="#f0e9e8"/></g></svg>