<svg fill="none" height="77" viewBox="0 0 77 77" width="77" xmlns="http://www.w3.org/2000/svg"><g fill="#003edd"><path d="m35 0h7v7h-7z"/><path d="m28 7h7v7h-7z"/><path d="m0 0h7v7h-7z" transform="matrix(-1 0 0 1 49 7)"/><path d="m21 14h7v7h-7z"/><path d="m0 0h7v7h-7z" transform="matrix(-1 0 0 1 56 14)"/><path d="m14 21h7v7h-7z"/><path d="m0 0h7v7h-7z" transform="matrix(-1 0 0 1 63 21)"/><path d="m7 28h7v7h-7z"/><path d="m0 0h7v7h-7z" transform="matrix(-1 0 0 1 70 28)"/><path d="m0 35h7v7h-7z"/><path d="m0 0h7v7h-7z" transform="matrix(-1 0 0 1 77 35)"/><path d="m0 42h7v7h-7z"/><path d="m0 0h7v7h-7z" transform="matrix(-1 0 0 1 77 42)"/><path d="m0 49h7v7h-7z"/><path d="m0 0h7v7h-7z" transform="matrix(-1 0 0 1 77 49)"/><path d="m0 56h7v7h-7z"/><path d="m0 0h7v7h-7z" transform="matrix(-1 0 0 1 77 56)"/><path d="m0 63h7v7h-7z"/><path d="m7 70h7v7h-7z"/><path d="m21 70h7v7h-7z"/><path d="m35 70h7v7h-7z"/><path d="m14 70h7v7h-7z"/><path d="m28 70h7v7h-7z"/><path d="m49 70h7v7h-7z"/><path d="m56 70h7v7h-7z"/><path d="m63 70h7v7h-7z"/><path d="m70 63h7v7h-7z"/><path d="m42 70h7v7h-7z"/></g></svg>